<svg width="538" height="395" viewBox="0 0 538 395" fill="none" xmlns="http://www.w3.org/2000/svg">
<g opacity="0.3">
<path d="M538 347.12H0V347.385H538V347.12Z" fill="#EBEBEB"/>
<path d="M484.092 364.179H426.989V364.444H484.092V364.179Z" fill="#EBEBEB"/>
<path d="M356.393 360.86H293.274V361.125H356.393V360.86Z" fill="#EBEBEB"/>
<path d="M429.744 359.334H409.095V359.599H429.744V359.334Z" fill="#EBEBEB"/>
<path d="M154.578 356.123H108.105V356.388H154.578V356.123Z" fill="#EBEBEB"/>
<path d="M102.113 356.123H85.4995V356.388H102.113V356.123Z" fill="#EBEBEB"/>
<path d="M199.781 360.595H141.462V360.86H199.781V360.595Z" fill="#EBEBEB"/>
<path d="M255.01 299.834H47.2455C45.6179 299.831 44.0579 299.192 42.908 298.057C41.7581 296.922 41.1123 295.384 41.1123 293.78V6.00092C41.1265 4.40635 41.7786 2.88169 42.9269 1.7581C44.0753 0.634505 45.6272 0.00273157 47.2455 0H255.01C256.64 0 258.203 0.637823 259.355 1.77315C260.507 2.90849 261.154 4.44832 261.154 6.05393V293.78C261.154 295.385 260.507 296.925 259.355 298.061C258.203 299.196 256.64 299.834 255.01 299.834ZM47.2455 0.212047C45.6892 0.214856 44.1977 0.82599 43.0982 1.91131C41.9988 2.99663 41.3813 4.46745 41.3813 6.00092V293.78C41.3813 295.313 41.9988 296.784 43.0982 297.869C44.1977 298.955 45.6892 299.566 47.2455 299.569H255.01C256.568 299.566 258.06 298.955 259.161 297.87C260.263 296.785 260.882 295.314 260.885 293.78V6.00092C260.882 4.46647 260.263 2.99568 259.161 1.91066C258.06 0.825646 256.568 0.21485 255.01 0.212047H47.2455Z" fill="#EBEBEB"/>
<path d="M487.761 299.834H279.986C278.357 299.831 276.796 299.192 275.644 298.057C274.493 296.923 273.845 295.385 273.842 293.78V6.00092C273.859 4.40539 274.513 2.88073 275.663 1.75743C276.813 0.634134 278.366 0.00270178 279.986 0H487.761C489.378 0.00551798 490.927 0.638524 492.073 1.76182C493.219 2.88511 493.87 4.40818 493.884 6.00092V293.78C493.884 295.382 493.239 296.918 492.092 298.053C490.944 299.188 489.387 299.828 487.761 299.834ZM279.986 0.212047C278.428 0.21485 276.936 0.825646 275.835 1.91066C274.734 2.99568 274.114 4.46647 274.111 6.00092V293.78C274.114 295.314 274.734 296.785 275.835 297.87C276.936 298.955 278.428 299.566 279.986 299.569H487.761C489.319 299.566 490.811 298.955 491.912 297.87C493.014 296.785 493.633 295.314 493.636 293.78V6.00092C493.633 4.46647 493.014 2.99568 491.912 1.91066C490.811 0.825646 489.319 0.21485 487.761 0.212047H279.986Z" fill="#EBEBEB"/>
<path d="M212.994 58.7051H66.1953V223.306H212.994V58.7051Z" fill="#F5F5F5"/>
<path d="M212.994 223.307H214.995L214.995 58.7056H212.994L212.994 223.307Z" fill="#E0E0E0"/>
<path d="M202.751 65.957H76.439V216.065H202.751V65.957Z" fill="#FAFAFA"/>
<path d="M312.03 284.121H456.978L456.978 30.1L312.03 30.1V284.121Z" fill="#E6E6E6"/>
<path d="M296.492 25.2231H466.36C466.743 25.2231 467.109 25.3728 467.38 25.6393C467.65 25.9057 467.802 26.2671 467.802 26.6439C467.799 27.0188 467.646 27.3775 467.376 27.6416C467.106 27.9058 466.741 28.054 466.36 28.054H296.492C296.113 28.054 295.749 27.9054 295.48 27.641C295.212 27.3765 295.061 27.0178 295.061 26.6439C295.06 26.4578 295.096 26.2733 295.167 26.101C295.238 25.9287 295.343 25.772 295.476 25.6399C295.609 25.5078 295.768 25.403 295.942 25.3315C296.116 25.26 296.303 25.2231 296.492 25.2231Z" fill="#E6E6E6"/>
<path d="M305.874 284.121H454.104L454.104 30.1L305.874 30.1V284.121Z" fill="#F0F0F0"/>
<path d="M312.03 284.121H456.978V288.139H307.791L312.03 284.121Z" fill="#E6E6E6"/>
<path d="M295.632 284.121H443.861L439.622 288.139H291.392L295.632 284.121Z" fill="#F0F0F0"/>
<path d="M445.496 275.639V38.582L314.493 38.582V275.639H445.496Z" fill="#FAFAFA"/>
<path d="M415.756 275.639L365.216 38.582H341.361L391.901 275.639H415.756Z" fill="white"/>
<path d="M386.767 275.639L336.238 38.582H326.931L377.47 275.639H386.767Z" fill="white"/>
<path d="M315.58 275.639V38.582H314.483V275.639H315.58Z" fill="#E6E6E6"/>
<g opacity="0.4">
<path opacity="0.4" d="M445.401 254.784H460.217L460.217 22.6776H445.401V254.784Z" fill="#F0F0F0"/>
<path opacity="0.4" d="M439.621 254.784H451.167L451.167 22.6776H439.621V254.784Z" fill="#E6E6E6"/>
<path opacity="0.4" d="M430.584 254.784H445.401L445.401 22.6776H430.584V254.784Z" fill="#F0F0F0"/>
<path opacity="0.4" d="M424.795 254.784H436.341L436.341 22.6776H424.795V254.784Z" fill="#E6E6E6"/>
<path opacity="0.4" d="M415.757 254.784H430.573L430.573 22.6776H415.757V254.784Z" fill="#F0F0F0"/>
</g>
<g opacity="0.4">
<path opacity="0.4" d="M320.001 254.784H328.545L328.545 22.6776H320.001V254.784Z" fill="#F0F0F0"/>
<path opacity="0.4" d="M316.675 254.784H323.324L323.324 22.6776H316.675V254.784Z" fill="#E6E6E6"/>
<path opacity="0.4" d="M311.469 254.784H320.013L320.013 22.6776H311.469V254.784Z" fill="#F0F0F0"/>
<path opacity="0.4" d="M308.145 254.784H314.795L314.795 22.6776H308.145V254.784Z" fill="#E6E6E6"/>
<path opacity="0.4" d="M302.914 254.784H311.458L311.458 22.6776H302.914V254.784Z" fill="#F0F0F0"/>
</g>
<path d="M154.332 328.672C156.075 265.832 152.729 163.922 146.466 129.772C146.338 129.153 146.081 128.566 145.711 128.049C145.34 127.533 144.865 127.098 144.314 126.772C141.086 124.726 139.139 127.164 139.548 130.652C141.506 147.552 143.26 189.442 145.014 262.333C145.885 298.604 145.014 323.456 147.349 328.693L154.332 328.672Z" fill="#E6E6E6"/>
<path d="M149.144 188.519C154.911 171.471 175.829 156.808 195.476 160.508C201.233 161.568 171.686 189.187 163.638 211.049C157.386 228.013 151.07 256.576 149.402 272.415C148.681 239.103 143.377 205.568 149.144 188.519Z" fill="#B3EBC3"/>
<path d="M155.817 225.829C161.584 208.78 175.185 196.63 189.926 196.641C195.726 196.641 173.786 216.499 165.781 238.361C159.529 255.325 153.213 283.887 151.545 299.727C150.824 266.436 150.049 242.899 155.817 225.829Z" fill="#B3EBC3"/>
<path d="M142.979 222.045C134.479 203.342 115.003 186.601 98.8629 186.601C92.1056 186.601 118.726 215.45 130.39 239.485C139.45 258.167 149.672 289.115 153.147 306.089C150.844 270.837 151.469 240.737 142.979 222.045Z" fill="#B3EBC3"/>
<path d="M150.241 150.617C155.126 136.187 166.607 125.892 179.121 125.903C184.038 125.903 165.488 142.718 158.677 161.23C153.383 175.607 148.035 199.78 146.626 213.181C146.012 184.99 145.356 165.057 150.241 150.617Z" fill="#B3EBC3"/>
<path d="M138.631 158.335C131.432 142.506 116.745 130.366 101.767 129.041C95.8921 128.521 119.65 148.326 129.528 168.683C137.211 184.502 145.862 210.71 148.799 225.087C146.905 195.231 145.819 174.164 138.631 158.335Z" fill="#B3EBC3"/>
<path d="M139.321 179.179C131.337 161.6 108.267 144.541 90.6318 150.033C84.5954 151.91 118.253 168.057 129.228 190.672C137.728 208.229 147.412 237.333 150.64 253.3C148.488 220.146 147.305 196.758 139.321 179.179Z" fill="#B3EBC3"/>
<path d="M130.088 323.446L131.164 343.442C131.283 347.237 132.95 347.121 134.963 347.121H161.798C163.81 347.121 165.478 347.237 165.596 343.442L166.672 323.435C166.791 319.321 165.058 315.854 162.874 315.854H133.887C131.702 315.854 129.959 319.321 130.088 323.446Z" fill="#E6E6E6"/>
<path d="M128.486 321.707H168.298C168.572 321.725 168.842 321.64 169.054 321.468C169.266 321.297 169.404 321.052 169.439 320.784L170.375 313.045C170.389 312.893 170.37 312.74 170.319 312.596C170.267 312.453 170.185 312.322 170.078 312.212C169.971 312.102 169.841 312.017 169.697 311.961C169.554 311.905 169.399 311.881 169.245 311.889H127.539C127.384 311.879 127.229 311.902 127.083 311.958C126.938 312.013 126.807 312.098 126.699 312.208C126.59 312.318 126.507 312.449 126.456 312.594C126.404 312.738 126.384 312.892 126.399 313.045L127.345 320.784C127.381 321.052 127.518 321.297 127.73 321.468C127.942 321.64 128.212 321.725 128.486 321.707Z" fill="#F5F5F5"/>
<path d="M269.001 395C384.221 395 477.626 389.627 477.626 382.998C477.626 376.37 384.221 370.997 269.001 370.997C153.78 370.997 60.375 376.37 60.375 382.998C60.375 389.627 153.78 395 269.001 395Z" fill="#F5F5F5"/>
<path d="M366.205 378.959C405.557 378.959 437.458 347.525 437.458 308.75C437.458 269.975 405.557 238.542 366.205 238.542C326.854 238.542 294.953 269.975 294.953 308.75C294.953 347.525 326.854 378.959 366.205 378.959Z" fill="#AEDAD6"/>
<g opacity="0.2">
<path opacity="0.2" d="M436.221 321.812C421.103 343.882 401.806 362.872 379.387 377.739C380.366 377.559 381.345 377.357 382.313 377.134C403.118 362.952 421.163 345.196 435.586 324.717C435.78 323.752 436.027 322.776 436.221 321.812Z" fill="white"/>
<path opacity="0.2" d="M437.081 301.572C437.017 300.957 436.941 300.342 436.855 299.728C417.212 332.02 389.775 359.03 356.984 378.354L358.845 378.566C390.82 359.464 417.655 333.055 437.081 301.572Z" fill="white"/>
<path opacity="0.2" d="M433.531 285.7C433.37 285.244 433.187 284.799 433.015 284.343C410.934 321.741 379.355 352.832 341.383 374.558L342.771 375.057C380.288 353.417 411.539 322.65 433.531 285.7Z" fill="white"/>
<path opacity="0.2" d="M427.809 273.444C427.594 273.073 427.357 272.712 427.142 272.384C403.424 312.257 369.708 345.457 329.226 368.801L330.302 369.459C370.552 346.133 404.11 313.089 427.809 273.444Z" fill="white"/>
<path opacity="0.2" d="M420.717 263.531C420.458 263.224 420.189 262.927 419.931 262.63C395.13 303.227 360.61 337.217 319.39 361.624L320.304 362.398C361.433 337.974 395.899 304.039 420.717 263.531Z" fill="white"/>
<path opacity="0.2" d="M412.42 255.336C412.129 255.081 411.839 254.827 411.538 254.594C386.16 294.618 351.847 328.407 311.211 353.386L311.975 354.245C352.646 329.22 386.997 295.395 412.42 255.336Z" fill="white"/>
<path opacity="0.2" d="M399.55 246.684L398.571 246.196C375.533 285.362 342.482 317.896 302.71 340.556C302.871 340.875 303.022 341.203 303.194 341.521C343.178 318.756 376.402 286.056 399.55 246.684Z" fill="white"/>
<path opacity="0.2" d="M384.799 240.979L383.723 240.703C363.82 276.784 333.735 306.41 297.105 325.999C297.191 326.338 297.288 326.667 297.374 327.006C334.372 307.3 364.75 277.408 384.799 240.979Z" fill="white"/>
<path opacity="0.2" d="M368.282 238.552H367.206C350.96 268.88 325.789 293.66 294.996 309.641C294.996 310.001 294.996 310.362 294.996 310.701C326.306 294.559 351.873 269.389 368.282 238.552Z" fill="white"/>
<path opacity="0.2" d="M296.976 292.368C319.166 280.291 337.442 262.282 349.7 240.417L348.462 240.724C336.428 261.831 318.721 279.261 297.288 291.096C297.137 291.563 296.976 291.965 296.976 292.368Z" fill="white"/>
</g>
<path d="M237.186 73.8206C238.545 68.1501 234.981 62.4684 229.226 61.1301C223.471 59.7917 217.705 63.3036 216.347 68.974C214.988 74.6444 218.552 80.3262 224.307 81.6645C230.062 83.0028 235.828 79.491 237.186 73.8206Z" fill="#263238"/>
<path d="M230.081 83.5585C229.94 83.5596 229.804 83.5104 229.697 83.4198C229.591 83.3292 229.521 83.2036 229.501 83.0662C229.481 82.9288 229.513 82.789 229.59 82.6729C229.667 82.5567 229.784 82.472 229.92 82.4346C231.846 81.8963 233.566 80.8068 234.864 79.3042C236.161 77.8016 236.976 75.9535 237.207 73.994C237.437 72.0344 237.072 70.0515 236.158 68.2965C235.244 66.5414 233.822 65.0931 232.072 64.135C230.912 63.4905 229.633 63.0798 228.311 62.9269C226.988 62.774 225.648 62.882 224.368 63.2444C224.24 63.2461 224.116 63.2066 224.014 63.132C223.912 63.0574 223.837 62.9518 223.802 62.8314C223.766 62.711 223.772 62.5825 223.818 62.4656C223.864 62.3487 223.947 62.2498 224.056 62.1842C226.935 61.3828 230.02 61.7413 232.631 63.1809C235.242 64.6204 237.166 67.0231 237.979 69.8603C238.792 72.6975 238.429 75.7369 236.968 78.3098C235.507 80.8826 233.068 82.7783 230.189 83.5797L230.081 83.5585Z" fill="#263238"/>
<path d="M233.901 83.759C233.77 83.7682 233.64 83.7325 233.532 83.658C233.425 83.5835 233.347 83.4747 233.311 83.35C233.276 83.2253 233.285 83.0924 233.338 82.9738C233.39 82.8551 233.483 82.758 233.6 82.6988C234.844 82.0739 235.943 81.2022 236.828 80.1387C237.714 79.0751 238.367 77.8425 238.746 76.5185C239.125 75.1944 239.221 73.8074 239.03 72.4447C238.839 71.0819 238.364 69.7728 237.635 68.5997C236.906 67.4265 235.938 66.4147 234.793 65.6277C233.648 64.8407 232.35 64.2955 230.981 64.0265C229.611 63.7575 228.2 63.7704 226.837 64.0644C225.473 64.3585 224.185 64.9272 223.055 65.7351C222.924 65.8008 222.773 65.8155 222.632 65.7762C222.491 65.7369 222.37 65.6464 222.294 65.523C222.218 65.3995 222.192 65.2523 222.221 65.1107C222.251 64.9691 222.333 64.8437 222.452 64.7596C225.009 63.2243 228.081 62.7528 230.99 63.4487C233.9 64.1446 236.41 65.951 237.968 68.4705C239.527 70.9899 240.005 74.0161 239.299 76.8833C238.593 79.7504 236.759 82.2237 234.202 83.759C234.104 83.7846 234 83.7846 233.901 83.759Z" fill="#263238"/>
<path d="M197.059 108.208C191.163 105.079 185.49 101.558 180.08 97.6695C177.279 95.6932 174.609 93.5437 172.085 91.2339C170.734 90.0006 169.469 88.6795 168.298 87.2792C166.851 85.6115 165.721 83.7009 164.962 81.6388L164.811 81.1511L164.628 80.5785L164.575 80.3029V80.112V79.7304L164.403 78.2142C164.403 77.3554 164.306 76.4648 164.295 75.6167C164.295 73.9309 164.295 72.2769 164.295 70.6442C164.359 67.3787 164.553 64.1555 164.747 60.9324C165.188 54.4968 165.823 48.1142 166.694 41.7104C166.788 41.0743 167.117 40.495 167.619 40.0844C168.121 39.6738 168.76 39.4612 169.412 39.4875C170.063 39.5139 170.682 39.7774 171.148 40.2272C171.614 40.6769 171.894 41.281 171.935 41.9225C172.268 48.2839 172.516 54.6453 172.763 61.0067C172.881 64.1874 173.054 67.368 173.215 70.4639C173.301 72.0225 173.419 73.5704 173.559 75.0653L173.796 77.2494C173.848 77.677 173.938 78.0992 174.065 78.5111C174.543 79.4041 175.148 80.2252 175.862 80.9496C176.82 81.9613 177.836 82.9172 178.907 83.8123C181.145 85.6889 183.62 87.4913 186.17 89.2406C188.72 90.99 191.389 92.644 194.068 94.2767C196.747 95.9095 199.512 97.5211 202.149 99.0372L202.256 99.0902C202.863 99.4251 203.397 99.8744 203.828 100.413C204.258 100.951 204.577 101.567 204.766 102.227C204.955 102.887 205.01 103.576 204.928 104.257C204.847 104.938 204.63 105.596 204.29 106.194C203.95 106.792 203.494 107.318 202.948 107.742C202.402 108.167 201.776 108.481 201.106 108.667C200.437 108.853 199.737 108.907 199.046 108.827C198.355 108.746 197.688 108.532 197.081 108.198L197.059 108.208Z" fill="#FFC3BD"/>
<path d="M171.352 45.6543L179.896 37.9146L169.868 34.7339C169.868 34.7339 163.358 39.5155 166.51 44.276L171.352 45.6543Z" fill="#FFC3BD"/>
<path d="M178.304 30.9166L174.581 29.9517C173.916 29.7778 173.209 29.846 172.59 30.1439C171.971 30.4419 171.483 30.9496 171.213 31.5739L169.868 34.7546L179.896 37.9353L180.413 34.023C180.504 33.3412 180.341 32.6498 179.953 32.0781C179.565 31.5064 178.979 31.0935 178.304 30.9166Z" fill="#FFC3BD"/>
<path d="M160.249 27.5669H156.289C154.079 27.5669 152.287 29.3327 152.287 31.511V40.7456C152.287 42.9238 154.079 44.6897 156.289 44.6897H160.249C162.46 44.6897 164.252 42.9238 164.252 40.7456V31.511C164.252 29.3327 162.46 27.5669 160.249 27.5669Z" fill="#5FB8AE"/>
<path d="M190.516 27.5669H186.556C184.346 27.5669 182.554 29.3327 182.554 31.511V40.7456C182.554 42.9238 184.346 44.6897 186.556 44.6897H190.516C192.727 44.6897 194.519 42.9238 194.519 40.7456V31.511C194.519 29.3327 192.727 27.5669 190.516 27.5669Z" fill="#5FB8AE"/>
<path d="M186.449 38.1695H160.323C159.764 38.153 159.233 37.9223 158.843 37.5264C158.453 37.1305 158.236 36.6006 158.236 36.049C158.255 35.5165 158.484 35.0122 158.873 34.6424C159.263 34.2726 159.782 34.0661 160.323 34.0664H186.416C186.965 34.0824 187.486 34.3042 187.874 34.6866C188.262 35.0689 188.488 35.5828 188.504 36.1233C188.485 36.6566 188.263 37.1634 187.883 37.5427C187.502 37.922 186.99 38.1458 186.449 38.1695Z" fill="#5FB8AE"/>
<path d="M190.602 104.9C190.43 112.321 191.484 127.716 196.768 159.714H238.872C238.215 144.086 237.451 133.855 243.853 104.9C244.066 103.937 244.074 102.941 243.876 101.975C243.679 101.009 243.28 100.094 242.706 99.287C242.132 98.4802 241.395 97.7993 240.54 97.2872C239.686 96.7752 238.733 96.4431 237.742 96.3119C235.03 95.9514 231.813 95.6121 228.456 95.4531C222.091 95.002 215.701 95.002 209.335 95.4531C205.225 95.8242 200.824 96.5133 197.499 97.0434C195.601 97.3566 193.873 98.3128 192.614 99.7471C191.355 101.181 190.643 103.004 190.602 104.9Z" fill="#5FB8AE"/>
<path d="M209.334 95.4222C201.802 92.093 191.258 91.3721 191.258 91.3721C189.002 96.8562 187.833 102.715 187.814 108.633C199.209 111.209 204.073 109.544 204.923 106.639C205.773 103.734 209.334 95.4222 209.334 95.4222Z" fill="#5FB8AE"/>
<path d="M226.562 74.2173C225.357 80.2818 224.151 91.3825 228.455 95.4219C228.455 95.4219 224.819 105.346 211.347 107.191C203.718 100.988 209.335 95.4219 209.335 95.4219C216.2 93.7998 216.017 88.7849 214.823 84.0775L226.562 74.2173Z" fill="#FFC3BD"/>
<path opacity="0.2" d="M221.774 78.2676L214.833 84.1095C215.123 85.205 215.321 86.3219 215.425 87.4492C218.04 87.0781 221.645 84.2685 221.881 81.5437C222.045 80.4541 222.008 79.3444 221.774 78.2676Z" fill="black"/>
<path d="M233.869 66.4877C229.823 75.8071 228.317 79.836 221.656 83.0061C211.649 87.7877 200.911 80.8856 202.051 70.5271C203.074 61.2289 209.519 47.5519 220.343 47.0854C222.739 46.9566 225.128 47.4371 227.28 48.4807C229.433 49.5242 231.277 51.0957 232.635 53.0442C233.994 54.9927 234.82 57.2527 235.036 59.607C235.252 61.9613 234.85 64.3307 233.869 66.4877Z" fill="#FFC3BD"/>
<path d="M218.332 45.6543C218.967 43.4278 215.986 32.0515 208.508 33.4404C201.03 34.8293 199.061 48.7713 211.973 50.0966C211.973 50.0966 216.6 51.7718 218.332 45.6543Z" fill="#263238"/>
<path d="M217.125 52.0053C213.628 54.3484 209.174 53.8925 207.183 50.9451C205.193 47.9976 206.408 43.7991 209.905 41.4666C213.402 39.1341 217.857 39.5794 219.848 42.5268C221.838 45.4743 220.579 49.6728 217.125 52.0053Z" fill="#5FB8AE"/>
<path d="M226.765 41.2337C217.705 38.4877 207.085 43.5238 207.397 53.2037C221.568 53.8717 222.978 58.7063 228.465 58.7063C226.023 61.887 224.667 71.3019 230.166 69.9766C240.215 74.2175 244.003 63.3184 241.872 60.0104C243.734 51.5604 236.772 44.2766 226.765 41.2337Z" fill="#263238"/>
<path d="M239.645 64.718C243.199 64.718 246.079 61.0012 246.079 56.4164C246.079 51.8315 243.199 48.1147 239.645 48.1147C236.091 48.1147 233.21 51.8315 233.21 56.4164C233.21 61.0012 236.091 64.718 239.645 64.718Z" fill="#5FB8AE"/>
<path d="M238.494 52.0264C240.032 50.0225 252.815 44.3927 256.786 51.8991C260.756 59.4056 249.921 70.6123 239.118 60.9959C239.129 60.9959 234.265 57.4866 238.494 52.0264Z" fill="#263238"/>
<path d="M197.661 160.213C197.661 160.213 182.737 223.594 176.464 254.128C169.922 285.935 155.966 371.676 155.966 371.676L164.574 371.125C164.574 371.125 192.088 297.969 197.661 258.263C210.078 225.29 229.511 159.036 229.511 159.036L197.661 160.213Z" fill="#FFC3BD"/>
<path d="M155.395 370.987L158.623 353.101C158.623 353.101 166.736 351.691 172.342 351.076C170.19 356.324 164.982 370.987 164.982 370.987H155.395Z" fill="#5FB8AE"/>
<path d="M155.945 370.022L164.715 369.789C164.927 369.773 165.138 369.833 165.31 369.957C165.482 370.082 165.603 370.263 165.651 370.467L167.351 378.546C167.376 378.79 167.347 379.036 167.267 379.268C167.187 379.501 167.058 379.713 166.888 379.892C166.717 380.071 166.51 380.212 166.28 380.305C166.05 380.398 165.803 380.442 165.554 380.433C161.024 380.433 160.755 380.253 155.052 380.433C151.534 380.518 145.164 381.992 140.408 381.144C135.652 380.295 137.481 376.447 139.547 376.479C147.025 376.606 147.8 374.358 154.03 370.732C154.594 370.333 155.255 370.088 155.945 370.022Z" fill="#263238"/>
<path d="M238.87 159.715C238.87 159.715 264.694 219.904 266.771 253.895C279.769 283.582 291.422 371.676 291.422 371.676L282.814 371.125C282.814 371.125 262.37 301.319 246.94 258.963C234.502 225.99 204.976 160.298 204.976 160.298L238.87 159.715Z" fill="#FFC3BD"/>
<path d="M282.18 370.987L276.284 351.034C280.549 351.048 284.811 351.31 289.045 351.818C289.927 357.204 291.391 370.595 291.391 370.595L282.18 370.987Z" fill="#5FB8AE"/>
<path d="M283.148 370.021L291.089 369.809C291.293 369.801 291.493 369.867 291.652 369.994C291.81 370.121 291.916 370.3 291.95 370.498L293.51 378.577C293.542 378.809 293.524 379.045 293.457 379.269C293.39 379.493 293.275 379.7 293.12 379.878C292.966 380.055 292.775 380.198 292.56 380.297C292.345 380.397 292.112 380.45 291.875 380.454C287.775 380.454 287.571 380.263 282.374 380.401C279.146 380.486 277.854 381.08 274.562 381.08C270.258 381.08 271.969 376.913 273.766 376.414C277.962 375.227 279.673 372.343 281.416 370.7C281.89 370.272 282.506 370.031 283.148 370.021Z" fill="#263238"/>
<path d="M218.234 63.9856C217.955 64.7702 217.309 65.2473 216.793 65.0458C216.276 64.8444 216.093 64.0916 216.373 63.3177C216.653 62.5437 217.298 62.056 217.815 62.2574C218.331 62.4589 218.514 63.2116 218.234 63.9856Z" fill="#263238"/>
<path d="M209.335 60.8586C209.056 61.6326 208.41 62.1203 207.894 61.9188C207.377 61.7174 207.183 60.9646 207.463 60.18C207.743 59.3955 208.399 58.929 208.905 59.1198C209.411 59.3106 209.615 60.0846 209.335 60.8586Z" fill="#263238"/>
<path d="M209.12 59.2459L207.419 58.0483C207.419 58.0483 207.871 59.8394 209.12 59.2459Z" fill="#263238"/>
<path d="M211.205 63.021C209.862 64.5447 208.313 65.879 206.6 66.9863C206.897 67.4106 207.286 67.7654 207.738 68.0255C208.189 68.2857 208.694 68.4449 209.215 68.4918L211.205 63.021Z" fill="#ED847E"/>
<path d="M212.251 72.8697C211.785 72.7992 211.327 72.682 210.885 72.5199C210.824 72.4983 210.774 72.454 210.746 72.3966C210.718 72.3391 210.713 72.273 210.734 72.2126C210.758 72.1518 210.805 72.1024 210.865 72.0748C210.926 72.0472 210.994 72.0434 211.057 72.0642C212.028 72.4318 213.073 72.5677 214.107 72.4609C215.141 72.354 216.135 72.0075 217.007 71.4495C217.055 71.4078 217.116 71.3848 217.179 71.3848C217.243 71.3848 217.304 71.4078 217.352 71.4495C217.396 71.495 217.421 71.5558 217.421 71.6191C217.421 71.6824 217.396 71.7432 217.352 71.7887C215.861 72.7928 214.03 73.1809 212.251 72.8697Z" fill="#263238"/>
<path d="M234.3 72.256C233.235 73.9123 231.549 75.0863 229.609 75.5215C227.037 76.0728 225.896 73.7721 226.736 71.4502C227.5 69.3297 229.748 66.5625 232.277 67.0502C232.826 67.1672 233.337 67.4171 233.763 67.7774C234.189 68.1377 234.517 68.597 234.718 69.1137C234.919 69.6305 234.986 70.1884 234.913 70.737C234.84 71.2857 234.629 71.8077 234.3 72.256Z" fill="#FFC3BD"/>
<path d="M221.064 60.7094C221 60.694 220.94 60.6652 220.888 60.625C220.836 60.5847 220.793 60.534 220.763 60.4762C220.479 59.9381 220.071 59.4728 219.573 59.1175C219.074 58.7623 218.498 58.5268 217.89 58.4299C217.82 58.4345 217.749 58.4243 217.683 58.3998C217.617 58.3754 217.557 58.3373 217.507 58.2882C217.457 58.2391 217.419 58.1801 217.394 58.115C217.369 58.05 217.359 57.9805 217.363 57.9112C217.368 57.8419 217.388 57.7743 217.421 57.7131C217.454 57.6518 217.5 57.5983 217.556 57.556C217.612 57.5138 217.677 57.4838 217.746 57.4682C217.814 57.4525 217.885 57.4514 217.955 57.4651C218.728 57.5703 219.464 57.8562 220.102 58.2988C220.741 58.7415 221.262 59.328 221.624 60.0097C221.686 60.1223 221.7 60.2544 221.664 60.3774C221.627 60.5004 221.544 60.6044 221.43 60.667C221.319 60.7281 221.187 60.7433 221.064 60.7094Z" fill="#263238"/>
<path d="M206.647 55.271C206.592 55.2406 206.544 55.1996 206.505 55.1505C206.466 55.1013 206.438 55.045 206.421 54.9849C206.384 54.864 206.398 54.7337 206.458 54.6225C206.519 54.5112 206.622 54.4281 206.744 54.3914C207.486 54.1534 208.275 54.0946 209.045 54.22C209.814 54.3454 210.542 54.6514 211.167 55.1121C211.217 55.152 211.258 55.2015 211.288 55.2574C211.319 55.3133 211.337 55.3747 211.343 55.4378C211.349 55.501 211.343 55.5647 211.323 55.6252C211.304 55.6858 211.273 55.7419 211.231 55.7903C211.146 55.8881 211.025 55.9494 210.894 55.9612C210.764 55.9731 210.634 55.9346 210.532 55.8539C210.036 55.4942 209.459 55.2574 208.85 55.1633C208.242 55.0692 207.619 55.1207 207.035 55.3134C206.971 55.3338 206.903 55.3406 206.836 55.3333C206.77 55.326 206.705 55.3048 206.647 55.271Z" fill="#263238"/>
<path d="M218.019 62.3839L216.33 61.1758C216.33 61.1758 216.771 62.9774 218.019 62.3839Z" fill="#263238"/>
<path d="M196.908 161.973L239.636 160.616C239.728 160.613 239.819 160.589 239.9 160.546C239.982 160.504 240.053 160.443 240.108 160.37C240.163 160.297 240.2 160.212 240.217 160.122C240.234 160.033 240.23 159.94 240.206 159.852L239.56 157.615C239.524 157.487 239.445 157.374 239.335 157.295C239.226 157.216 239.093 157.176 238.958 157.181L196.789 158.538C196.627 158.546 196.475 158.616 196.365 158.732C196.254 158.849 196.194 159.004 196.197 159.163L196.273 161.39C196.274 161.47 196.292 161.548 196.325 161.621C196.358 161.694 196.405 161.76 196.464 161.814C196.524 161.869 196.593 161.911 196.67 161.938C196.746 161.965 196.827 161.977 196.908 161.973Z" fill="#263238"/>
<path d="M232.308 159.036C232.308 159.036 223.237 194.024 214.554 211.147C206.441 213.15 189.074 203.163 187.041 198.975C191.484 176.053 194.314 164.072 197.661 160.171C217.029 160.499 232.308 159.036 232.308 159.036Z" fill="#263238"/>
<path opacity="0.2" d="M217.352 175.629C213.629 183.782 214.35 198.328 215.91 208.496C218.181 203.598 220.44 197.65 222.528 191.617L217.352 175.629Z" fill="black"/>
<path d="M203.061 159.831C203.061 159.831 214.897 194.077 223.623 211.189C232.457 210.807 253.385 201.52 255.408 197.342C250.975 174.42 242.195 162.97 238.87 159.036C219.502 159.354 203.061 159.831 203.061 159.831Z" fill="#263238"/>
<path d="M240.592 98.1466C245.66 99.6097 250.997 101.009 256.151 102.059C258.637 102.564 261.153 102.918 263.683 103.119C264.736 103.211 265.794 103.211 266.847 103.119C267.126 103.096 267.403 103.05 267.675 102.981C267.74 102.981 267.675 102.981 267.621 103.077L267.449 103.257C267.449 103.257 267.385 103.331 267.352 103.384C267.32 103.437 267.266 103.522 267.352 103.384C268.013 102.445 268.61 101.464 269.138 100.447C269.752 99.3235 270.333 98.1466 270.914 96.9485C272.054 94.5418 273.195 92.0821 274.282 89.5905L280.899 74.5352C281.156 73.9418 281.628 73.4639 282.223 73.1946C282.818 72.9253 283.494 72.8838 284.118 73.0783C284.743 73.2728 285.271 73.6893 285.601 74.2467C285.931 74.8041 286.038 75.4625 285.903 76.0937C284.762 81.5645 283.395 86.9399 281.771 92.3047C280.942 94.9765 280.092 97.6059 279.102 100.331C278.597 101.667 278.08 103.013 277.488 104.381C276.863 105.847 276.125 107.265 275.282 108.622L274.949 109.088C274.813 109.27 274.666 109.444 274.508 109.608C274.223 109.928 273.91 110.222 273.572 110.488C273.003 110.937 272.381 111.318 271.721 111.622C270.693 112.092 269.608 112.43 268.493 112.629C266.783 112.939 265.045 113.071 263.307 113.022C260.265 112.953 257.233 112.659 254.236 112.142C248.517 111.216 242.875 109.88 237.353 108.145C236.011 107.738 234.887 106.823 234.229 105.6C233.571 104.377 233.433 102.947 233.846 101.624C234.258 100.301 235.187 99.1937 236.428 98.5455C237.669 97.8973 239.12 97.7615 240.463 98.1678L240.592 98.1466Z" fill="#FFC3BD"/>
<path d="M236.321 96.1323C244.477 97.2986 248.674 99.313 248.674 99.313C248.674 99.313 248.179 108.696 244.014 115.895C233.922 110.594 230.715 103.395 231.587 100.5C232.458 97.606 236.321 96.1323 236.321 96.1323Z" fill="#5FB8AE"/>
<path d="M280.836 77.1324L275.305 67.5903L286.065 71.1103C286.065 71.1103 287.755 75.7223 284.785 78.797L280.836 77.1324Z" fill="#FFC3BD"/>
<path d="M279.349 62.6072L283.578 63.6674C284.119 63.7966 284.606 64.0903 284.969 64.5069C285.332 64.9236 285.553 65.4422 285.601 65.9893L286.052 71.0996L275.292 67.5797L276.164 64.4944C276.342 63.8336 276.774 63.2669 277.368 62.9146C277.963 62.5623 278.673 62.452 279.349 62.6072Z" fill="#FFC3BD"/>
<path d="M270.018 57.5034L266.121 56.8138C263.945 56.4288 261.864 57.8547 261.474 59.9987L259.817 69.0879C259.427 71.2319 260.874 73.282 263.05 73.667L266.947 74.3566C269.123 74.7415 271.203 73.3156 271.594 71.1717L273.25 62.0824C273.641 59.9385 272.194 57.8883 270.018 57.5034Z" fill="#5FB8AE"/>
<path d="M299.819 62.768L295.922 62.0784C293.746 61.6934 291.666 63.1194 291.275 65.2633L289.619 74.3526C289.228 76.4965 290.675 78.5466 292.851 78.9316L296.748 79.6212C298.924 80.0062 301.005 78.5803 301.395 76.4363L303.052 67.3471C303.442 65.2031 301.995 63.153 299.819 62.768Z" fill="#5FB8AE"/>
<path d="M293.92 72.5001L268.246 67.9624C267.707 67.8519 267.231 67.5418 266.917 67.0961C266.603 66.6503 266.474 66.1028 266.557 65.5662C266.669 65.0369 266.982 64.5698 267.432 64.2604C267.882 63.951 268.435 63.8227 268.978 63.9017L294.651 68.4395C295.191 68.5499 295.666 68.86 295.981 69.3057C296.295 69.7515 296.424 70.299 296.341 70.8356C296.228 71.3649 295.915 71.832 295.465 72.1414C295.015 72.4508 294.462 72.5791 293.92 72.5001Z" fill="#5FB8AE"/>
</g>
</svg>
