<svg width="165" height="44" viewBox="0 0 165 44" fill="none" xmlns="http://www.w3.org/2000/svg">
<path d="M23.4011 0C12.363 0 3.44426 9.09229 3.35596 20.3451H7.15305C7.15305 11.2528 14.4823 3.87097 23.4011 3.87097C32.3198 3.87097 39.6491 11.2528 39.6491 20.4351C39.6491 26.2866 36.6468 31.4179 32.1432 34.3886C32.8497 35.4689 33.3795 36.6392 33.7327 37.8995C39.4725 34.2986 43.3579 27.817 43.3579 20.4351C43.3579 9.09229 34.4391 0 23.4011 0Z" fill="#99252E"/>
<path d="M20.31 26.1067V31.148H0C0 28.3573 2.20761 26.1067 4.94505 26.1067H20.31Z" fill="#671319"/>
<path d="M33.9972 42.9406H28.8756L28.1691 40.1499L28.0808 39.9699C27.7276 38.7095 27.1095 37.5392 26.2264 36.639C25.52 36.0089 24.7253 35.3787 23.8422 35.0186L19.8685 33.2182C19.2504 34.2084 18.5439 35.0186 17.7492 35.9188C16.7779 36.9091 15.7182 37.8093 14.4819 38.6195C12.186 40.1499 9.62519 41.2302 6.88775 41.7703L0 42.9406V37.8093L6.00471 36.729C7.41758 36.459 8.74215 36.0089 9.89011 35.4687C11.0381 34.9286 12.186 34.1184 13.1574 33.3082C13.8638 32.678 14.4819 32.0479 15.0118 31.2377C15.2767 30.8776 15.4533 30.6075 15.7182 30.2474C15.8948 29.9773 16.0714 29.7073 16.1597 29.4372L17.6609 27.0066L18.1907 26.1064L18.279 26.0163L18.8089 25.1161L20.6633 21.8753L21.1931 20.8851L21.5463 20.3449H9.09537V20.2549C9.09537 18.9046 9.62519 17.6442 10.5965 16.744C11.4796 15.8438 12.7158 15.2136 14.1287 15.2136H30.2001L27.0212 20.8851L24.1071 25.9263L22.4293 28.807L25.8732 30.3374C28.0808 31.3277 29.9352 32.8581 31.1715 34.8386C31.8779 35.9188 32.4078 37.0891 32.761 38.3494C32.761 38.4395 32.8493 38.5295 32.8493 38.7095L33.9972 42.9406Z" fill="#273043"/>
<path d="M28.6989 14.3135C30.796 14.3135 32.496 12.5804 32.496 10.4425C32.496 8.30463 30.796 6.57153 28.6989 6.57153C26.6019 6.57153 24.9019 8.30463 24.9019 10.4425C24.9019 12.5804 26.6019 14.3135 28.6989 14.3135Z" fill="#273043"/>
<path d="M26.3148 21.9656L23.4007 27.0068H0C0 24.2161 2.20761 21.9656 4.94505 21.9656H26.3148Z" fill="#99252E"/>
<path d="M59.3381 25.5274H67.4141V29.9692H54.7233V9.77918H67.2699V14.221H59.3381V17.5668H66.5489V21.9509H59.3381V25.5274ZM83.5741 29.9692H78.6131L75.9307 26.162L73.2483 29.9692H68.2873L73.4502 22.6431L68.4604 15.5478H73.4214L75.9307 19.1243L78.44 15.5478H83.401L78.4112 22.6431L83.5741 29.9692ZM88.0193 24.4891C88.5192 25.8351 89.6729 26.5081 91.4804 26.5081C92.6534 26.5081 93.5763 26.1427 94.2494 25.4121L97.7105 27.4022C96.2876 29.3828 94.1917 30.373 91.4227 30.373C88.9999 30.373 87.0578 29.652 85.5965 28.2098C84.1543 26.7677 83.4332 24.9506 83.4332 22.7585C83.4332 20.5857 84.1447 18.7782 85.5676 17.336C87.0098 15.8747 88.8557 15.144 91.1055 15.144C93.2014 15.144 94.9416 15.8747 96.326 17.336C97.7297 18.7782 98.4316 20.5857 98.4316 22.7585C98.4316 23.3738 98.3739 23.9507 98.2585 24.4891H88.0193ZM87.9327 21.2587H94.134C93.7109 19.7396 92.6918 18.9801 91.0766 18.9801C89.4037 18.9801 88.3558 19.7396 87.9327 21.2587ZM105.212 18.1148C105.481 17.1918 106.02 16.49 106.827 16.0093C107.654 15.5093 108.558 15.2593 109.538 15.2593V20.1626C108.481 19.9896 107.491 20.1723 106.568 20.7107C105.664 21.2298 105.212 22.1432 105.212 23.4507V29.9692H100.885V15.5478H105.212V18.1148ZM115.83 29.9692L110.263 9.77918H115.108L118.598 23.9122L122.492 9.77918H126.242L130.136 23.9122L133.626 9.77918H138.471L132.905 29.9692H127.655L124.367 18.0571L121.079 29.9692H115.83ZM143.764 13.5288C143.264 14.0287 142.659 14.2787 141.947 14.2787C141.236 14.2787 140.62 14.0287 140.101 13.5288C139.601 13.0096 139.351 12.3943 139.351 11.6828C139.351 10.9714 139.601 10.3657 140.101 9.86571C140.62 9.34653 141.236 9.08695 141.947 9.08695C142.659 9.08695 143.264 9.34653 143.764 9.86571C144.284 10.3657 144.543 10.9714 144.543 11.6828C144.543 12.3943 144.284 13.0096 143.764 13.5288ZM139.784 29.9692V15.5478H144.11V29.9692H139.784ZM155.727 15.144C157.266 15.144 158.544 15.6728 159.564 16.7303C160.602 17.7879 161.121 19.2493 161.121 21.1145V29.9692H156.795V21.749C156.795 20.9029 156.554 20.2588 156.074 19.8165C155.612 19.355 155.016 19.1243 154.285 19.1243C153.458 19.1243 152.805 19.3743 152.324 19.8742C151.843 20.3742 151.603 21.1145 151.603 22.0951V29.9692H147.276V15.5478H151.603V16.9034C152.468 15.7304 153.843 15.144 155.727 15.144Z" fill="#99252E"/>
</svg>
