<svg width="122" height="41" viewBox="0 0 122 41" fill="none" xmlns="http://www.w3.org/2000/svg">
<path d="M112.285 0.00013325H9.7208C9.34695 0.00013325 8.97757 0.00013325 8.6047 0.00218324C8.29258 0.00423324 7.98294 0.0101885 7.66782 0.0152007C6.98322 0.0233 6.30024 0.0838511 5.6248 0.196328C4.95031 0.311253 4.29695 0.52792 3.68681 0.839001C3.07742 1.15271 2.52061 1.56035 2.03656 2.04712C1.54998 2.53253 1.14437 3.09359 0.835344 3.70873C0.525461 4.32266 0.310587 4.98053 0.198144 5.65963C0.0846314 6.33788 0.0235493 7.02394 0.0154457 7.71168C0.00598459 8.02594 0.00498546 8.34125 0 8.65555V32.3476C0.00498546 32.6659 0.00598459 32.9742 0.0154457 33.2925C0.0235518 33.9802 0.0846339 34.6663 0.198144 35.3445C0.310277 36.024 0.525163 36.6822 0.835344 37.2964C1.14423 37.9095 1.5499 38.4683 2.03656 38.951C2.51877 39.44 3.07595 39.8479 3.68681 40.1592C4.29694 40.4711 4.95023 40.6891 5.6248 40.8058C6.30035 40.9173 6.98327 40.9779 7.66782 40.987C7.98294 40.994 8.29258 40.998 8.6047 40.998C8.97756 41 9.34697 41 9.7208 41H112.285C112.651 41 113.023 41 113.39 40.998C113.7 40.998 114.019 40.994 114.33 40.987C115.013 40.9784 115.695 40.9178 116.369 40.8058C117.046 40.6882 117.701 40.4703 118.314 40.1592C118.925 39.8477 119.481 39.4398 119.963 38.951C120.448 38.4664 120.855 37.9081 121.168 37.2964C121.476 36.6818 121.688 36.0236 121.799 35.3445C121.913 34.6662 121.976 33.9803 121.988 33.2925C121.992 32.9742 121.992 32.6659 121.992 32.3476C122 31.9752 122 31.6049 122 31.2264V9.77463C122 9.39927 122 9.02691 121.992 8.65555C121.992 8.34125 121.992 8.02594 121.988 7.71163C121.976 7.02384 121.913 6.33793 121.799 5.65959C121.688 4.98088 121.475 4.32306 121.168 3.70869C120.538 2.4757 119.54 1.47205 118.314 0.838908C117.701 0.528588 117.045 0.311979 116.369 0.196236C115.695 0.0832633 115.013 0.0226911 114.33 0.0150572C114.019 0.0100552 113.7 0.00404874 113.39 0.00204999C113.023 0 112.651 0 112.285 0V0.00013325Z" fill="#A6A6A6"/>
<path d="M8.60952 40.1031C8.29889 40.1031 7.99577 40.0991 7.68758 40.0921C7.04914 40.0838 6.41219 40.0279 5.78195 39.9249C5.19429 39.8232 4.625 39.6339 4.09287 39.3634C3.56562 39.095 3.08472 38.7432 2.6686 38.3213C2.24646 37.9044 1.895 37.4209 1.62817 36.8899C1.35839 36.3555 1.17169 35.7826 1.07457 35.1913C0.969685 34.5559 0.912938 33.9135 0.904818 33.2694C0.898355 33.0533 0.889893 32.3335 0.889893 32.3335V8.65552C0.889893 8.65552 0.898905 7.94683 0.904869 7.73862C0.912644 7.09562 0.969061 6.45415 1.07363 5.81976C1.17093 5.22681 1.35778 4.6523 1.6277 4.11611C1.89355 3.58548 2.24306 3.1016 2.66266 2.68321C3.08178 2.26086 3.56422 1.90721 4.09237 1.63519C4.62328 1.36549 5.19149 1.17755 5.77796 1.07765C6.41027 0.973679 7.04943 0.917469 7.69009 0.909488L8.61002 0.896973H113.385L114.316 0.90999C114.95 0.917574 115.584 0.973284 116.21 1.07664C116.803 1.1778 117.377 1.36705 117.914 1.63819C118.972 2.1864 119.833 3.05373 120.376 4.11861C120.642 4.6511 120.826 5.22093 120.922 5.80875C121.027 6.44835 121.087 7.09486 121.099 7.74313C121.102 8.03341 121.102 8.34521 121.102 8.65552C121.11 9.03989 121.11 9.40575 121.11 9.7746V31.2264C121.11 31.5988 121.11 31.9622 121.102 32.3285C121.102 32.6618 121.102 32.9672 121.098 33.2814C121.086 33.9181 121.028 34.5531 120.924 35.1813C120.828 35.7769 120.643 36.3542 120.373 36.893C120.104 37.4182 119.755 37.8976 119.338 38.3133C118.921 38.7375 118.439 39.0914 117.911 39.3614C117.375 39.6341 116.802 39.824 116.21 39.9249C115.58 40.0284 114.943 40.0843 114.305 40.0921C114.006 40.0991 113.693 40.1031 113.39 40.1031L112.285 40.1051L8.60952 40.1031Z" fill="black"/>
<path d="M25.2524 20.8081C25.2634 19.9526 25.4894 19.1137 25.9095 18.3696C26.3296 17.6255 26.93 17.0004 27.655 16.5523C27.1944 15.891 26.5868 15.3468 25.8805 14.9628C25.1741 14.5789 24.3885 14.3659 23.5859 14.3406C21.8739 14.16 20.2142 15.3706 19.3418 15.3706C18.4525 15.3706 17.1092 14.3586 15.6628 14.3885C14.7272 14.4189 13.8154 14.6924 13.0162 15.1824C12.2171 15.6724 11.5578 16.3622 11.1026 17.1846C9.13083 20.6167 10.6016 25.6607 12.4904 28.435C13.4353 29.7935 14.5398 31.3109 15.9849 31.2571C17.399 31.1982 17.9272 30.3505 19.6342 30.3505C21.3253 30.3505 21.8208 31.2571 23.2953 31.2229C24.8127 31.1982 25.7688 29.8584 26.6806 28.4871C27.3596 27.5191 27.882 26.4493 28.2286 25.3172C27.3471 24.9424 26.5947 24.3149 26.0655 23.513C25.5362 22.7112 25.2535 21.7704 25.2524 20.8081Z" fill="white"/>
<path d="M22.4674 12.5161C23.2948 11.5175 23.7024 10.2341 23.6037 8.93823C22.3396 9.07171 21.172 9.67908 20.3335 10.6393C19.9235 11.1084 19.6095 11.6542 19.4094 12.2454C19.2093 12.8366 19.1271 13.4616 19.1674 14.0847C19.7997 14.0913 20.4252 13.9535 20.9968 13.6818C21.5684 13.4101 22.0712 13.0115 22.4674 12.5161Z" fill="white"/>
<path d="M43.1279 27.8181H38.3021L37.1431 31.2584H35.0991L39.67 18.53H41.7937L46.3646 31.2584H44.2858L43.1279 27.8181ZM38.8019 26.2305H42.6271L40.7414 20.6471H40.6886L38.8019 26.2305Z" fill="white"/>
<path d="M56.2363 26.619C56.2363 29.5028 54.7011 31.3556 52.3843 31.3556C51.7974 31.3864 51.2137 31.2505 50.7001 30.9634C50.1864 30.6762 49.7636 30.2495 49.48 29.732H49.4362V34.3284H47.5415V21.9784H49.3755V23.5219H49.4103C49.707 23.0069 50.1369 22.5824 50.6545 22.2935C51.172 22.0046 51.7578 21.8622 52.3494 21.8813C54.6921 21.8814 56.2363 23.7432 56.2363 26.619ZM54.2889 26.619C54.2889 24.7401 53.3231 23.5049 51.8496 23.5049C50.402 23.5049 49.4282 24.7662 49.4282 26.619C49.4282 28.4888 50.402 29.741 51.8496 29.741C53.3231 29.741 54.2889 28.5148 54.2889 26.619Z" fill="white"/>
<path d="M66.3955 26.619C66.3955 29.5028 64.8603 31.3556 62.5434 31.3556C61.9566 31.3864 61.3729 31.2505 60.8592 30.9634C60.3456 30.6762 59.9228 30.2495 59.6392 29.732H59.5954V34.3284H57.7007V21.9784H59.5346V23.5219H59.5695C59.8661 23.0069 60.2961 22.5824 60.8136 22.2935C61.3312 22.0046 61.9169 21.8622 62.5086 21.8814C64.8513 21.8814 66.3955 23.7432 66.3955 26.619ZM64.4481 26.619C64.4481 24.7401 63.4823 23.5049 62.0088 23.5049C60.5611 23.5049 59.5874 24.7662 59.5874 26.619C59.5874 28.4888 60.5611 29.741 62.0088 29.741C63.4823 29.741 64.4481 28.5148 64.4481 26.619H64.4481Z" fill="white"/>
<path d="M73.1102 27.7121C73.2506 28.9743 74.4702 29.803 76.1369 29.803C77.7339 29.803 78.8828 28.9742 78.8828 27.8361C78.8828 26.8482 78.1899 26.2566 76.5491 25.8512L74.9083 25.4538C72.5835 24.8893 71.5042 23.7962 71.5042 22.0225C71.5042 19.8263 73.4079 18.3179 76.111 18.3179C78.7862 18.3179 80.6202 19.8263 80.6819 22.0225H78.7693C78.6548 20.7522 77.6104 19.9855 76.0841 19.9855C74.5578 19.9855 73.5134 20.7613 73.5134 21.8904C73.5134 22.7902 74.1804 23.3197 75.8123 23.7251L77.2071 24.0694C79.8047 24.687 80.884 25.7361 80.884 27.5979C80.884 29.9792 78.9973 31.4706 75.9965 31.4706C73.1888 31.4706 71.2931 30.0142 71.1707 27.712L73.1102 27.7121Z" fill="white"/>
<path d="M84.973 19.7822V21.9784H86.7283V23.4868H84.973V28.6028C84.973 29.3976 85.3245 29.7679 86.0961 29.7679C86.3045 29.7643 86.5125 29.7496 86.7194 29.7239V31.2233C86.3724 31.2885 86.0198 31.318 85.667 31.3114C83.7982 31.3114 83.0694 30.6057 83.0694 28.806V23.4868H81.7273V21.9784H83.0694V19.7822H84.973Z" fill="white"/>
<path d="M87.7449 26.6191C87.7449 23.6993 89.4553 21.8645 92.1226 21.8645C94.7989 21.8645 96.5014 23.6992 96.5014 26.6191C96.5014 29.547 94.8078 31.3737 92.1226 31.3737C89.4384 31.3737 87.7449 29.547 87.7449 26.6191ZM94.5709 26.6191C94.5709 24.6162 93.6579 23.434 92.1226 23.434C90.5874 23.434 89.6754 24.6252 89.6754 26.6191C89.6754 28.6301 90.5874 29.8032 92.1226 29.8032C93.6579 29.8032 94.5708 28.6301 94.5708 26.6191H94.5709Z" fill="white"/>
<path d="M98.0635 21.9784H99.8705V23.5579H99.9144C100.037 23.0646 100.324 22.6286 100.728 22.3233C101.133 22.0179 101.629 21.8619 102.135 21.8813C102.353 21.8805 102.571 21.9043 102.784 21.9523V23.7341C102.508 23.6494 102.221 23.6105 101.932 23.6189C101.657 23.6077 101.383 23.6565 101.128 23.762C100.873 23.8674 100.644 24.0271 100.457 24.2299C100.269 24.4327 100.128 24.674 100.041 24.9371C99.9554 25.2001 99.927 25.4788 99.9582 25.754V31.2584H98.0635L98.0635 21.9784Z" fill="white"/>
<path d="M111.519 28.533C111.264 30.2176 109.633 31.3737 107.545 31.3737C104.86 31.3737 103.193 29.565 103.193 26.6632C103.193 23.7523 104.869 21.8645 107.465 21.8645C110.019 21.8645 111.625 23.6282 111.625 26.4419V27.0946H105.105V27.2097C105.075 27.5512 105.118 27.8953 105.23 28.219C105.343 28.5427 105.522 28.8388 105.757 29.0874C105.992 29.336 106.277 29.5315 106.592 29.661C106.908 29.7904 107.248 29.8509 107.589 29.8382C108.036 29.8804 108.486 29.7762 108.87 29.541C109.254 29.3058 109.552 28.9523 109.72 28.533L111.519 28.533ZM105.114 25.7633H109.729C109.746 25.4562 109.7 25.1489 109.593 24.8607C109.486 24.5724 109.322 24.3095 109.109 24.0883C108.896 23.8672 108.641 23.6926 108.358 23.5755C108.075 23.4584 107.771 23.4014 107.465 23.408C107.157 23.4062 106.851 23.4658 106.565 23.5834C106.28 23.701 106.02 23.8743 105.802 24.0932C105.583 24.3122 105.41 24.5725 105.292 24.8592C105.174 25.1458 105.114 25.4531 105.114 25.7633V25.7633Z" fill="white"/>
<path d="M38.5645 8.94932C38.9618 8.92066 39.3603 8.981 39.7316 9.12596C40.1028 9.27093 40.4374 9.49692 40.7112 9.78764C40.985 10.0784 41.1913 10.4265 41.315 10.8071C41.4388 11.1876 41.477 11.5911 41.427 11.9883C41.427 13.9422 40.3766 15.0653 38.5645 15.0653H36.3672V8.94932H38.5645ZM37.312 14.2004H38.459C38.7428 14.2174 39.0269 14.1706 39.2905 14.0634C39.5541 13.9562 39.7905 13.7912 39.9827 13.5805C40.1749 13.3698 40.3179 13.1187 40.4014 12.8454C40.4848 12.5721 40.5066 12.2836 40.4652 12.0007C40.5036 11.719 40.4796 11.4323 40.3949 11.161C40.3101 10.8897 40.1668 10.6406 39.975 10.4316C39.7833 10.2226 39.5479 10.0588 39.2858 9.95193C39.0237 9.84509 38.7414 9.79785 38.459 9.81361H37.312V14.2004Z" fill="white"/>
<path d="M42.4941 12.7556C42.4653 12.4523 42.4998 12.1463 42.5955 11.8572C42.6911 11.568 42.8458 11.3022 43.0497 11.0767C43.2535 10.8512 43.502 10.6711 43.7792 10.5478C44.0563 10.4245 44.356 10.3608 44.6591 10.3608C44.9622 10.3608 45.2619 10.4245 45.5391 10.5478C45.8162 10.6711 46.0647 10.8512 46.2685 11.0767C46.4724 11.3022 46.6271 11.568 46.7228 11.8572C46.8185 12.1463 46.853 12.4523 46.8241 12.7556C46.8535 13.0592 46.8194 13.3657 46.724 13.6553C46.6286 13.9449 46.4739 14.2112 46.2701 14.4371C46.0662 14.663 45.8175 14.8436 45.5401 14.9671C45.2626 15.0907 44.9625 15.1545 44.6591 15.1545C44.3557 15.1545 44.0556 15.0907 43.7782 14.9671C43.5007 14.8436 43.2521 14.663 43.0482 14.4371C42.8443 14.2112 42.6897 13.9449 42.5942 13.6553C42.4988 13.3657 42.4647 13.0592 42.4941 12.7556ZM45.8922 12.7556C45.8922 11.7552 45.4452 11.1701 44.6606 11.1701C43.8731 11.1701 43.43 11.7552 43.43 12.7556C43.43 13.7641 43.8731 14.3447 44.6606 14.3447C45.4452 14.3447 45.8922 13.7601 45.8922 12.7556H45.8922Z" fill="white"/>
<path d="M52.5801 15.0652H51.6402L50.6914 11.6659H50.6197L49.6749 15.0652H48.744L47.4785 10.4497H48.3975L49.2199 13.9716H49.2876L50.2314 10.4497H51.1006L52.0445 13.9716H52.1161L52.9345 10.4497H53.8406L52.5801 15.0652Z" fill="white"/>
<path d="M54.9048 10.4498H55.777V11.183H55.8447C55.9595 10.9197 56.1532 10.6989 56.3988 10.5515C56.6444 10.4041 56.9296 10.3374 57.2146 10.3607C57.438 10.3439 57.6623 10.3777 57.8709 10.4598C58.0795 10.5419 58.267 10.6701 58.4196 10.835C58.5723 10.9999 58.686 11.1971 58.7525 11.4122C58.819 11.6273 58.8364 11.8546 58.8037 12.0774V15.0653H57.8976V12.3061C57.8976 11.5644 57.5771 11.1956 56.907 11.1956C56.7553 11.1885 56.6039 11.2144 56.4632 11.2716C56.3224 11.3289 56.1957 11.416 56.0915 11.5271C55.9874 11.6382 55.9084 11.7706 55.86 11.9153C55.8115 12.0599 55.7947 12.2134 55.8108 12.3652V15.0653H54.9048L54.9048 10.4498Z" fill="white"/>
<path d="M60.2473 8.64795H61.1533V15.0652H60.2473V8.64795Z" fill="white"/>
<path d="M62.4128 12.7555C62.384 12.4521 62.4185 12.1461 62.5142 11.8569C62.6099 11.5678 62.7646 11.302 62.9685 11.0765C63.1724 10.851 63.4209 10.6708 63.698 10.5476C63.9752 10.4243 64.275 10.3606 64.578 10.3606C64.8811 10.3606 65.1809 10.4243 65.4581 10.5476C65.7352 10.6708 65.9837 10.851 66.1876 11.0765C66.3915 11.302 66.5462 11.5678 66.6419 11.8569C66.7376 12.1461 66.7721 12.4521 66.7433 12.7555C66.7727 13.0591 66.7385 13.3656 66.6431 13.6551C66.5476 13.9447 66.393 14.211 66.1891 14.437C65.9851 14.6629 65.7365 14.8434 65.459 14.9669C65.1816 15.0905 64.8815 15.1543 64.578 15.1543C64.2746 15.1543 63.9745 15.0905 63.6971 14.9669C63.4196 14.8434 63.171 14.6629 62.967 14.437C62.7631 14.211 62.6085 13.9447 62.513 13.6551C62.4176 13.3656 62.3834 13.0591 62.4128 12.7555ZM65.8109 12.7555C65.8109 11.755 65.3638 11.1699 64.5793 11.1699C63.7917 11.1699 63.3487 11.755 63.3487 12.7555C63.3487 13.764 63.7918 14.3445 64.5793 14.3445C65.3638 14.3445 65.8109 13.7599 65.8109 12.7555H65.8109Z" fill="white"/>
<path d="M67.697 13.7599C67.697 12.9291 68.3123 12.4501 69.4045 12.3821L70.6481 12.31V11.9116C70.6481 11.4241 70.3275 11.1489 69.7082 11.1489C69.2024 11.1489 68.852 11.3355 68.7514 11.6619H67.8742C67.9668 10.8691 68.7086 10.3606 69.75 10.3606C70.901 10.3606 71.5501 10.9366 71.5501 11.9116V15.0652H70.6779V14.4165H70.6062C70.4607 14.6492 70.2564 14.8389 70.0142 14.9662C69.7719 15.0935 69.5004 15.1539 69.2273 15.1412C69.0346 15.1614 68.8398 15.1407 68.6555 15.0805C68.4712 15.0204 68.3015 14.922 68.1573 14.7919C68.0131 14.6618 67.8977 14.5027 67.8184 14.3249C67.7391 14.1472 67.6978 13.9547 67.697 13.7599ZM70.6481 13.3655V12.9796L69.527 13.0517C68.8948 13.0942 68.608 13.3105 68.608 13.7173C68.608 14.1327 68.9664 14.3745 69.4593 14.3745C69.6037 14.3892 69.7496 14.3745 69.8883 14.3314C70.0269 14.2882 70.1555 14.2175 70.2664 14.1234C70.3773 14.0292 70.4683 13.9136 70.5339 13.7834C70.5994 13.6532 70.6383 13.5111 70.6481 13.3655Z" fill="white"/>
<path d="M72.741 12.7555C72.741 11.297 73.4867 10.3731 74.6466 10.3731C74.9335 10.3599 75.2183 10.4289 75.4676 10.5723C75.7168 10.7157 75.9204 10.9275 76.0544 11.1829H76.1221V8.64795H77.0281V15.0652H76.16V14.336H76.0883C75.9439 14.5897 75.7332 14.7988 75.4791 14.9407C75.225 15.0827 74.9371 15.152 74.6466 15.1413C73.4787 15.1413 72.741 14.2174 72.741 12.7555ZM73.6769 12.7555C73.6769 13.7344 74.1359 14.3235 74.9035 14.3235C75.6671 14.3235 76.1391 13.7259 76.1391 12.7595C76.1391 11.7975 75.6622 11.1914 74.9035 11.1914C74.1408 11.1914 73.6769 11.7845 73.6769 12.7555H73.6769Z" fill="white"/>
<path d="M80.7766 12.7556C80.7477 12.4523 80.7822 12.1463 80.8779 11.8572C80.9736 11.568 81.1283 11.3022 81.3322 11.0767C81.536 10.8512 81.7845 10.6711 82.0616 10.5478C82.3388 10.4245 82.6385 10.3608 82.9416 10.3608C83.2447 10.3608 83.5444 10.4245 83.8215 10.5478C84.0987 10.6711 84.3472 10.8512 84.551 11.0767C84.7548 11.3022 84.9096 11.568 85.0052 11.8572C85.1009 12.1463 85.1354 12.4523 85.1066 12.7556C85.136 13.0592 85.1019 13.3657 85.0065 13.6553C84.911 13.9449 84.7564 14.2112 84.5525 14.4371C84.3486 14.663 84.1 14.8436 83.8225 14.9671C83.5451 15.0907 83.245 15.1545 82.9416 15.1545C82.6381 15.1545 82.3381 15.0907 82.0606 14.9671C81.7832 14.8436 81.5345 14.663 81.3306 14.4371C81.1268 14.2112 80.9721 13.9449 80.8767 13.6553C80.7813 13.3657 80.7472 13.0592 80.7766 12.7556ZM84.1747 12.7556C84.1747 11.7552 83.7276 11.1701 82.9431 11.1701C82.1555 11.1701 81.7125 11.7552 81.7125 12.7556C81.7125 13.7641 82.1556 14.3447 82.9431 14.3447C83.7276 14.3447 84.1747 13.7601 84.1747 12.7556Z" fill="white"/>
<path d="M86.3223 10.4498H87.1944V11.183H87.2621C87.377 10.9197 87.5707 10.6989 87.8163 10.5515C88.0619 10.4041 88.3471 10.3374 88.6321 10.3607C88.8555 10.3439 89.0798 10.3777 89.2884 10.4598C89.497 10.5419 89.6845 10.6701 89.8371 10.835C89.9897 10.9999 90.1035 11.1971 90.17 11.4122C90.2364 11.6273 90.2539 11.8546 90.2211 12.0774V15.0653H89.3151V12.3061C89.3151 11.5644 88.9945 11.1956 88.3245 11.1956C88.1728 11.1885 88.0214 11.2144 87.8807 11.2716C87.7399 11.3289 87.6131 11.416 87.509 11.5271C87.4049 11.6382 87.3259 11.7706 87.2774 11.9153C87.229 12.0599 87.2122 12.2134 87.2283 12.3652V15.0653H86.3223V10.4498Z" fill="white"/>
<path d="M95.3406 9.30078V10.4709H96.3353V11.2382H95.3406V13.6115C95.3406 14.0949 95.5388 14.3066 95.9898 14.3066C96.1053 14.3063 96.2206 14.2993 96.3353 14.2856V15.0444C96.1726 15.0736 96.0077 15.0892 95.8424 15.0909C94.8349 15.0909 94.4336 14.7346 94.4336 13.8447V11.2381H93.7048V10.4709H94.4336V9.30078H95.3406Z" fill="white"/>
<path d="M97.5728 8.64795H98.4708V11.1914H98.5425C98.6629 10.9256 98.862 10.7036 99.1124 10.5557C99.3629 10.4077 99.6527 10.341 99.9423 10.3646C100.165 10.3525 100.387 10.3898 100.593 10.4739C100.799 10.558 100.984 10.6868 101.135 10.8511C101.286 11.0155 101.399 11.2113 101.466 11.4246C101.534 11.638 101.553 11.8635 101.523 12.0853V15.0652H100.616V12.31C100.616 11.5728 100.275 11.1994 99.6347 11.1994C99.479 11.1866 99.3224 11.2081 99.1758 11.2625C99.0292 11.3169 98.8962 11.4028 98.7861 11.5142C98.676 11.6257 98.5915 11.76 98.5384 11.9077C98.4853 12.0555 98.465 12.2131 98.4788 12.3696V15.0652H97.5728L97.5728 8.64795Z" fill="white"/>
<path d="M106.806 13.819C106.683 14.2409 106.416 14.6057 106.053 14.8498C105.689 15.0939 105.252 15.2017 104.817 15.1543C104.515 15.1624 104.214 15.1041 103.936 14.9836C103.658 14.8632 103.41 14.6834 103.208 14.4567C103.006 14.23 102.856 13.9619 102.768 13.671C102.679 13.3801 102.655 13.0733 102.696 12.772C102.656 12.4698 102.681 12.1623 102.769 11.8705C102.857 11.5788 103.007 11.3094 103.207 11.0808C103.408 10.8521 103.655 10.6695 103.932 10.5453C104.209 10.421 104.51 10.3581 104.813 10.3607C106.09 10.3607 106.861 11.2381 106.861 12.6874V13.0053H103.619V13.0563C103.605 13.2257 103.626 13.3962 103.681 13.5568C103.737 13.7175 103.825 13.8648 103.94 13.9893C104.055 14.1138 104.195 14.2127 104.35 14.2798C104.505 14.3468 104.673 14.3804 104.842 14.3785C105.059 14.4047 105.278 14.3655 105.473 14.2658C105.667 14.1662 105.828 14.0107 105.934 13.819L106.806 13.819ZM103.619 12.3316H105.938C105.949 12.1767 105.929 12.0211 105.877 11.8748C105.825 11.7285 105.743 11.5948 105.636 11.4822C105.53 11.3696 105.401 11.2806 105.259 11.221C105.116 11.1613 104.962 11.1324 104.808 11.1359C104.651 11.1339 104.496 11.1635 104.351 11.2229C104.206 11.2823 104.074 11.3703 103.963 11.4818C103.852 11.5932 103.765 11.7258 103.706 11.8717C103.647 12.0177 103.617 12.174 103.619 12.3316H103.619Z" fill="white"/>
</svg>
