<svg width="50" height="50" viewBox="0 0 50 50" fill="none" xmlns="http://www.w3.org/2000/svg">
<path d="M25 28.125C26.7259 28.125 28.125 26.7259 28.125 25C28.125 23.2741 26.7259 21.875 25 21.875C23.2741 21.875 21.875 23.2741 21.875 25C21.875 26.7259 23.2741 28.125 25 28.125Z" fill="black"/>
<path d="M45.0221 23.0469C44.0989 13.5102 36.4898 5.90107 26.9531 4.97793V0H23.0469V4.97793C13.5102 5.90107 5.90107 13.5102 4.97793 23.0469H0V26.9531H4.97793C5.90107 36.4898 13.5102 44.0989 23.0469 45.0221V50H26.9531V45.0221C36.4898 44.0989 44.0989 36.4897 45.0221 26.9531H50V23.0469H45.0221ZM41.093 26.9531C40.2025 34.3337 34.3337 40.2025 26.9531 41.093V36.1328H23.0469V41.093C15.6663 40.2025 9.79746 34.3337 8.90703 26.9531H13.8672V23.0469H8.90703C9.79746 15.6663 15.6663 9.79746 23.0469 8.90703V13.8672H26.9531V8.90703C34.3337 9.79736 40.2025 15.6662 41.093 23.0469H36.1328V26.9531H41.093Z" fill="black"/>
</svg>
