<svg width="18" height="18" viewBox="0 0 18 18" fill="none" xmlns="http://www.w3.org/2000/svg">
<path d="M11.7454 17.3332V11.3121H13.9895L14.3255 8.70657H11.7454V7.04311C11.7454 6.28874 11.9549 5.77467 13.0367 5.77467L14.4164 5.77407V3.44366C14.1777 3.41191 13.3587 3.34097 12.4059 3.34097C10.4166 3.34097 9.05477 4.55521 9.05477 6.78507V8.70657H6.80494V11.3121H9.05477V17.3332H2.66675C1.56218 17.3332 0.666748 16.4377 0.666748 15.3332L0.666748 2.6665C0.666748 1.56193 1.56218 0.666504 2.66675 0.666504L15.3334 0.666504C16.438 0.666504 17.3334 1.56193 17.3334 2.6665V15.3332C17.3334 16.4377 16.438 17.3332 15.3334 17.3332H11.7454Z" fill="#007BFF"/>
</svg>
