<svg width="136" height="41" viewBox="0 0 136 41" fill="none" xmlns="http://www.w3.org/2000/svg">
<path d="M130.963 41H5.03704C2.26667 41 0 38.6938 0 35.875V5.125C0 2.30626 2.26667 4.98692e-06 5.03704 4.98692e-06H130.963C133.733 4.98692e-06 136 2.30626 136 5.125V35.875C136 38.6938 133.733 41 130.963 41Z" fill="black"/>
<path d="M130.963 4.98692e-06H5.03704C2.26667 4.98692e-06 0 2.30626 0 5.125V35.875C0 38.6938 2.26667 41 5.03704 41H130.963C133.733 41 136 38.6938 136 35.875V5.125C136 2.30626 133.733 4.98692e-06 130.963 4.98692e-06ZM130.963 0.820005C133.296 0.820005 135.194 2.75152 135.194 5.125V35.875C135.194 38.2489 133.296 40.1804 130.963 40.1804H5.03704C2.70428 40.1804 0.805926 38.2489 0.805926 35.875V5.125C0.805926 2.75152 2.70428 0.820005 5.03704 0.820005H130.963Z" fill="#A6A6A6"/>
<path d="M47.7695 10.4995C47.7695 11.3583 47.5196 12.0422 47.019 12.5523C46.4504 13.1589 45.7094 13.4624 44.7984 13.4624C43.926 13.4624 43.1842 13.1549 42.5742 12.5391C41.9631 11.9237 41.6582 11.1606 41.6582 10.2501C41.6582 9.33914 41.9631 8.57643 42.5742 7.96061C43.1842 7.34521 43.926 7.0373 44.7984 7.0373C45.2313 7.0373 45.6457 7.12339 46.0392 7.29518C46.4327 7.46738 46.7483 7.69596 46.9845 7.98224L46.4532 8.52314C46.053 8.03667 45.5021 7.79364 44.7984 7.79364C44.1621 7.79364 43.612 8.02109 43.1477 8.47629C42.6832 8.93201 42.4511 9.52292 42.4511 10.2501C42.4511 10.9772 42.6832 11.5681 43.1477 12.0238C43.612 12.479 44.1621 12.7065 44.7984 12.7065C45.4733 12.7065 46.0361 12.4778 46.4866 12.0198C46.779 11.7214 46.9482 11.3067 46.9934 10.7741H44.7984V10.0354H47.7274C47.7557 10.196 47.7695 10.3502 47.7695 10.4995Z" fill="white"/>
<path d="M47.7697 10.4996H47.669C47.6681 11.3387 47.4273 11.9905 46.9479 12.4799L46.9468 12.4807L46.9464 12.4815C46.3959 13.0672 45.6883 13.3587 44.7985 13.3599C43.9494 13.3587 43.2387 13.064 42.6452 12.4667C42.0531 11.8681 41.7602 11.1373 41.7591 10.2501C41.7602 9.36244 42.0531 8.63212 42.6452 8.03393C43.2387 7.43615 43.9494 7.14106 44.7985 7.13982C45.2184 7.13982 45.6183 7.22316 45.9996 7.38931C46.3813 7.55669 46.6828 7.77604 46.9075 8.04838L46.9846 7.98227L46.9134 7.9098L46.3821 8.45111L46.4533 8.52317L46.5309 8.45756C46.1121 7.94701 45.5243 7.68964 44.7985 7.69117C44.1387 7.69035 43.5582 7.9302 43.0781 8.40273C42.5933 8.87679 42.3497 9.50091 42.3505 10.2501C42.3497 10.9993 42.5933 11.6234 43.0781 12.0974C43.5582 12.57 44.1387 12.8098 44.7985 12.809C45.4959 12.8102 46.0901 12.5696 46.558 12.0923C46.8705 11.7735 47.0476 11.332 47.094 10.783L47.1034 10.6717H44.8993V10.138H47.7276V10.0355L47.6284 10.0535C47.656 10.2089 47.669 10.3566 47.669 10.4996H47.7697H47.8704C47.8704 10.3438 47.8562 10.1837 47.8267 10.0171L47.8118 9.93295H44.6978V10.7742V10.8767H46.9936V10.7742L46.8932 10.7654C46.8488 11.2811 46.6874 11.6695 46.4155 11.9474C45.9827 12.3862 45.4514 12.6028 44.7985 12.604C44.1858 12.6032 43.666 12.3885 43.2178 11.9502C42.774 11.5133 42.5531 10.9556 42.552 10.2501C42.5531 9.54458 42.774 8.98688 43.2178 8.55002C43.666 8.11163 44.1858 7.89699 44.7985 7.89617C45.4798 7.89781 45.9941 8.1268 46.3762 8.58928L46.4471 8.67497L47.0558 8.05474L47.1211 7.98832L47.0617 7.91657C46.8142 7.61635 46.4844 7.37803 46.0791 7.20112C45.673 7.02369 45.2444 6.93482 44.7985 6.93482C43.903 6.934 43.1301 7.25432 42.5032 7.88818C41.8739 8.52081 41.5568 9.316 41.5576 10.2501C41.5568 11.1838 41.8739 11.9794 42.5036 12.6124C43.1301 13.2459 43.903 13.5658 44.7985 13.5649C45.7312 13.5658 46.5049 13.2506 47.092 12.6232L47.0192 12.5523L47.0904 12.6248C47.6122 12.0943 47.8711 11.3776 47.8704 10.4996H47.7697Z" fill="white"/>
<path d="M52.4129 7.93048H49.6603V9.88044H52.1426V10.6195H49.6603V12.5694H52.4129V13.325H48.8843V7.17495H52.4129V7.93048Z" fill="white"/>
<path d="M52.4131 7.93051V7.82801H49.5597V9.98297H52.0421V10.5167L49.5597 10.517V12.672H52.3123V13.2225H48.9852V7.27749H52.3123V7.93051H52.4131V7.82801V7.93051H52.5138V7.17499V7.07249H48.7837V13.4275H52.5138V12.5695V12.467H49.7612V10.722H52.2435V9.88047V9.77797H49.7612V8.03301H52.5138V7.93051H52.4131Z" fill="white"/>
<path d="M55.6883 13.325H54.9111V7.93048H53.2229V7.17495H57.3766V7.93048H55.6883V13.325Z" fill="white"/>
<path d="M55.6885 13.325V13.2225H55.012V7.82801H53.3238V7.27749H57.276V7.82801H55.5878V13.325H55.6885V13.2225V13.325H55.7892V8.03301H57.4775V7.17499V7.07249H53.1223V7.93051V8.03301H54.8105V13.4275H55.6885H55.7892V13.325H55.6885Z" fill="white"/>
<path d="M60.3818 13.325V7.17495H61.1582V13.325H60.3818Z" fill="white"/>
<path d="M60.382 13.325H60.4827V7.27749H61.0577V13.2225H60.382V13.325H60.4827H60.382V13.4275H61.1584H61.2591V7.07249H60.382H60.2812V13.4275H60.382V13.325Z" fill="white"/>
<path d="M64.6035 13.325H63.8263V7.93048H62.1382V7.17495H66.2917V7.93048H64.6035V13.325Z" fill="white"/>
<path d="M64.6037 13.325V13.2225H63.9272V7.82801H62.2391V7.27749H66.1911V7.82801H64.5029V13.325H64.6037V13.2225V13.325H64.7044V8.03301H66.3926V7.17499V7.07249H62.0376V7.93051V8.03301H63.7257V13.4275H64.6037H64.7044V13.325H64.6037Z" fill="white"/>
<path d="M70.2961 12.0154C70.7435 12.4762 71.2909 12.7065 71.9383 12.7065C72.5857 12.7065 73.1334 12.4762 73.5801 12.0154C74.0279 11.5546 74.2522 10.9655 74.2522 10.2501C74.2522 9.5346 74.0279 8.94554 73.5801 8.4847C73.1334 8.02386 72.5857 7.79364 71.9383 7.79364C71.2909 7.79364 70.7435 8.02386 70.2961 8.4847C69.8495 8.94554 69.6252 9.5346 69.6252 10.2501C69.6252 10.9655 69.8495 11.5546 70.2961 12.0154ZM74.1546 12.5303C73.5603 13.152 72.8213 13.4624 71.9383 13.4624C71.0544 13.4624 70.3158 13.152 69.7228 12.5303C69.1281 11.9092 68.8323 11.149 68.8323 10.2501C68.8323 9.35113 69.1281 8.59078 69.7228 7.96984C70.3158 7.34797 71.0544 7.0373 71.9383 7.0373C72.8167 7.0373 73.5537 7.34961 74.1507 7.97384C74.7469 8.59806 75.0452 9.35677 75.0452 10.2501C75.0452 11.149 74.7476 11.9092 74.1546 12.5303Z" fill="white"/>
<path d="M70.2963 12.0154L70.2247 12.0875C70.6887 12.5668 71.2675 12.8102 71.9385 12.809C72.609 12.8102 73.1887 12.5668 73.6519 12.0875C74.1189 11.6078 74.3538 10.9872 74.3531 10.2501C74.3538 9.51301 74.1189 8.89238 73.6519 8.41268C73.1887 7.93339 72.609 7.68995 71.9385 7.69118C71.2675 7.68995 70.6887 7.93339 70.2247 8.41268C69.7587 8.89238 69.5234 9.51301 69.5246 10.2501C69.5234 10.9872 69.7587 11.6078 70.2247 12.0875L70.2963 12.0154L70.3679 11.9434C69.9406 11.5009 69.7269 10.9443 69.7261 10.2501C69.7269 9.55586 69.9406 8.99928 70.3679 8.55679C70.7992 8.1144 71.3143 7.89741 71.9385 7.89618C72.5621 7.89741 73.0784 8.1144 73.5086 8.55679C73.9368 8.99928 74.1504 9.55586 74.1512 10.2501C74.1504 10.9443 73.9368 11.5009 73.5086 11.9434C73.0784 12.3858 72.5621 12.6028 71.9385 12.604C71.3143 12.6028 70.7992 12.3858 70.3679 11.9434L70.2963 12.0154ZM74.1548 12.5303L74.0827 12.4591C73.5051 13.0613 72.7987 13.3587 71.9385 13.3599C71.0778 13.3587 70.3714 13.0613 69.7949 12.4591L69.7922 12.4559L69.7949 12.4591C69.2185 11.8548 68.934 11.1262 68.9332 10.2501C68.934 9.37402 69.2185 8.64535 69.7949 8.04111C70.3714 7.43893 71.0778 7.14106 71.9385 7.13983C72.7931 7.14106 73.4979 7.44016 74.0788 8.04552C74.6573 8.65253 74.9434 9.38007 74.9446 10.2501C74.9434 11.1262 74.6581 11.8548 74.0827 12.4591L74.1548 12.5303L74.2272 12.6015C74.8379 11.9634 75.1468 11.1718 75.146 10.2501C75.1468 9.33364 74.8367 8.54367 74.2232 7.90264C73.6093 7.25914 72.8404 6.9337 71.9385 6.93483C71.0318 6.9337 70.2605 7.2576 69.6505 7.89864V7.89823C69.0386 8.5368 68.7309 9.32841 68.7317 10.2501C68.7309 11.1718 69.0386 11.9634 69.6505 12.602L69.6533 12.6048L69.6505 12.6015C70.2605 13.2426 71.0318 13.5658 71.9385 13.5649C72.8447 13.5658 73.616 13.2426 74.2272 12.6015L74.1548 12.5303Z" fill="white"/>
<path d="M76.1353 13.325V7.17495H77.0805L80.0181 11.9592H80.0516L80.0181 10.774V7.17495H80.7953V13.325H79.9847L76.9113 8.30881H76.8778L76.9113 9.49442V13.325H76.1353Z" fill="white"/>
<path d="M76.1352 13.325H76.2359V7.27749H77.0245L79.9621 12.0618H80.0515H80.1549L80.1187 10.7725V7.27749H80.6945V13.2225H80.0405L76.9671 8.20634H76.8777H76.7743L76.8104 9.4961V13.2225H76.1352V13.325H76.2359H76.1352V13.4275H76.9112H77.0119V9.49282L76.9785 8.30607L76.8777 8.30884V8.41134H76.9112V8.30884L76.8257 8.36337L79.9286 13.4275H80.7952H80.896V7.07249H80.018H79.9173V10.7753L79.9507 11.962L80.0515 11.9593V11.8568H80.018V11.9593L80.1034 11.9049L77.1362 7.07249H76.1352H76.0344V13.4275H76.1352V13.325Z" fill="white"/>
<path d="M107.728 30.7501H109.608V17.9364H107.728V30.7501ZM124.66 22.5522L122.505 28.1076H122.44L120.204 22.5522H118.179L121.533 30.3168L119.62 34.6359H121.582L126.75 22.5522H124.66ZM113.999 29.2947C113.383 29.2947 112.524 28.9816 112.524 28.2065C112.524 27.2175 113.594 26.8383 114.517 26.8383C115.344 26.8383 115.732 27.0196 116.235 27.2672C116.088 28.4539 115.084 29.2947 113.999 29.2947ZM114.226 22.2718C112.865 22.2718 111.455 22.882 110.872 24.2338L112.54 24.9425C112.897 24.2338 113.561 24.0027 114.258 24.0027C115.23 24.0027 116.218 24.5965 116.235 25.6516V25.7833C115.894 25.5854 115.166 25.2888 114.274 25.2888C112.476 25.2888 110.644 26.2941 110.644 28.1736C110.644 29.8881 112.119 30.9927 113.771 30.9927C115.036 30.9927 115.732 30.4158 116.17 29.74H116.235V30.7289H118.049V25.8161C118.049 23.5415 116.381 22.2718 114.226 22.2718ZM102.608 24.112H99.9347V19.7198H102.608C104.014 19.7198 104.812 20.9037 104.812 21.9158C104.812 22.9089 104.014 24.112 102.608 24.112ZM102.56 17.9364H98.0559V30.7501H99.9347V25.8954H102.56C104.643 25.8954 106.691 24.3607 106.691 21.9158C106.691 19.4711 104.643 17.9364 102.56 17.9364ZM77.9984 29.2971C76.6998 29.2971 75.6125 28.1908 75.6125 26.6713C75.6125 25.1359 76.6998 24.0128 77.9984 24.0128C79.2805 24.0128 80.2867 25.1359 80.2867 26.6713C80.2867 28.1908 79.2805 29.2971 77.9984 29.2971ZM80.1569 23.2697H80.0919C79.6701 22.7579 78.8582 22.2955 77.8359 22.2955C75.6936 22.2955 73.7299 24.2109 73.7299 26.6713C73.7299 29.1153 75.6936 31.0144 77.8359 31.0144C78.8582 31.0144 79.6701 30.5519 80.0919 30.0238H80.1569V30.6512C80.1569 32.3193 79.2805 33.2109 77.8685 33.2109C76.7163 33.2109 76.0021 32.3685 75.7097 31.6586L74.0707 32.3521C74.5414 33.508 75.7912 34.9282 77.8685 34.9282C80.0758 34.9282 81.9422 33.6069 81.9422 30.387V22.5597H80.1569V23.2697ZM83.2404 30.7501H85.1231V17.936H83.2404V30.7501ZM87.8985 26.5228C87.8497 24.8383 89.1806 23.9799 90.1381 23.9799C90.8852 23.9799 91.5178 24.3594 91.7284 24.9048L87.8985 26.5228ZM93.7412 25.0698C93.3845 24.0952 92.2965 22.2955 90.0731 22.2955C87.8659 22.2955 86.0321 24.0624 86.0321 26.6549C86.0321 29.0989 87.8497 31.0144 90.284 31.0144C92.2482 31.0144 93.3845 29.7924 93.855 29.0824L92.3943 28.0915C91.9077 28.8182 91.2418 29.2971 90.284 29.2971C89.3266 29.2971 88.6451 28.8511 88.2067 27.9762L93.9356 25.565L93.7412 25.0698ZM48.0973 23.6331V25.4825H52.4468C52.317 26.5228 51.9762 27.2823 51.4567 27.8108C50.824 28.455 49.8339 29.165 48.0973 29.165C45.4194 29.165 43.3259 26.9688 43.3259 24.2441C43.3259 21.5195 45.4194 19.323 48.0973 19.323C49.5419 19.323 50.5965 19.9011 51.3756 20.6442L52.6578 19.3398C51.5705 18.2827 50.1259 17.4736 48.0973 17.4736C44.4293 17.4736 41.3457 20.5121 41.3457 24.2441C41.3457 27.9762 44.4293 31.0144 48.0973 31.0144C50.0775 31.0144 51.5705 30.3542 52.7389 29.1153C53.9399 27.8933 54.3134 26.1761 54.3134 24.7891C54.3134 24.3594 54.281 23.9635 54.2157 23.6331H48.0973ZM59.2583 29.2971C57.9597 29.2971 56.8397 28.2072 56.8397 26.6549C56.8397 25.0862 57.9597 24.0128 59.2583 24.0128C60.5565 24.0128 61.6764 25.0862 61.6764 26.6549C61.6764 28.2072 60.5565 29.2971 59.2583 29.2971ZM59.2583 22.2955C56.8885 22.2955 54.9571 24.1284 54.9571 26.6549C54.9571 29.165 56.8885 31.0144 59.2583 31.0144C61.6276 31.0144 63.559 29.165 63.559 26.6549C63.559 24.1284 61.6276 22.2955 59.2583 22.2955ZM68.6405 29.2971C67.3424 29.2971 66.2223 28.2072 66.2223 26.6549C66.2223 25.0862 67.3424 24.0128 68.6405 24.0128C69.9387 24.0128 71.0587 25.0862 71.0587 26.6549C71.0587 28.2072 69.9387 29.2971 68.6405 29.2971ZM68.6405 22.2955C66.2708 22.2955 64.3398 24.1284 64.3398 26.6549C64.3398 29.165 66.2708 31.0144 68.6405 31.0144C71.0099 31.0144 72.9413 29.165 72.9413 26.6549C72.9413 24.1284 71.0099 22.2955 68.6405 22.2955Z" fill="white"/>
<path d="M10.5877 33.1992L10.5129 33.1263C10.2197 32.8107 10.0466 32.3207 10.0466 31.6861V31.8355V9.16655C10.0466 9.1645 10.0466 9.16296 10.0466 9.16132C10.0466 9.16327 10.0466 9.16491 10.0466 9.16696V9.31671C10.0466 8.62955 10.2484 8.11193 10.5865 7.80156L23.0681 20.5008L10.5877 33.1992ZM10.0466 9.16009C10.0466 9.10362 10.0481 9.04878 10.051 8.99476C10.0481 9.04837 10.0466 9.10362 10.0466 9.16009ZM10.051 8.9923C10.051 8.99158 10.051 8.99076 10.0513 8.98994C10.051 8.99076 10.051 8.99158 10.051 8.9923ZM10.0513 8.98512C10.0513 8.98471 10.0513 8.98431 10.0513 8.9839C10.0513 8.98431 10.0513 8.98471 10.0513 8.98512Z" fill="url(#paint0_linear)"/>
<path d="M27.228 24.8855L27.3229 24.8307L32.252 21.9811C32.722 21.7092 33.0352 21.3797 33.1914 21.031C33.0356 21.3797 32.7223 21.7096 32.252 21.9815L27.3229 24.8311L27.228 24.8855ZM27.2292 24.7353L23.0681 20.5009L27.2288 16.2671L32.252 19.1707C32.8899 19.5395 33.2481 20.0148 33.3079 20.5004C33.3079 20.5009 33.3079 20.5017 33.3079 20.5024C33.2481 20.9869 32.8899 21.4626 32.252 21.8313L27.2292 24.7353Z" fill="url(#paint1_linear)"/>
<path d="M11.4775 33.6829C11.1289 33.6829 10.8246 33.5675 10.5874 33.3497L10.5878 33.3493C10.825 33.5671 11.1297 33.6829 11.4783 33.6829C11.5086 33.6829 11.5393 33.682 11.5704 33.6805C11.5389 33.682 11.5078 33.6829 11.4775 33.6829ZM11.4779 33.5327C11.1293 33.5331 10.825 33.4174 10.5878 33.1996V33.1993L23.0682 20.5008L27.2293 24.7353L12.6065 33.1888C12.202 33.4222 11.8186 33.5327 11.4779 33.5327ZM10.5843 33.347C10.5622 33.3266 10.5405 33.3049 10.5193 33.2825L10.5843 33.347Z" fill="url(#paint2_linear)"/>
<path d="M23.068 20.5007L10.5864 7.80149C10.8237 7.58409 11.1275 7.46878 11.4758 7.46878C11.8174 7.46878 12.201 7.57968 12.6064 7.81349L27.2287 16.267L23.068 20.5007ZM27.3228 16.1713L12.6064 7.66383C12.201 7.42993 11.8174 7.31903 11.4758 7.31903C11.4742 7.31903 11.473 7.31903 11.4714 7.31903C11.4734 7.31903 11.475 7.31903 11.4774 7.31903C11.8182 7.31903 12.2014 7.42952 12.6064 7.66342L27.3228 16.1713Z" fill="url(#paint3_linear)"/>
<path d="M11.5702 33.6804C11.8869 33.662 12.2376 33.5511 12.6063 33.3385L27.2278 24.8854L12.6063 33.3385C12.2379 33.5515 11.8869 33.662 11.5702 33.6804ZM10.5871 33.3497L10.584 33.3469C10.5851 33.3477 10.5863 33.3488 10.5871 33.3497ZM10.519 33.2824L10.5127 33.2761V33.2756C10.5151 33.278 10.517 33.2804 10.519 33.2824Z" fill="black"/>
<path d="M27.2278 24.8855L27.3227 24.8307L27.2278 24.8855Z" fill="url(#paint4_linear)"/>
<path d="M11.4781 33.6829C11.1294 33.6829 10.8248 33.5671 10.5875 33.3493L10.5871 33.3497C10.5863 33.3489 10.5851 33.3478 10.584 33.347L10.519 33.2825C10.517 33.2804 10.5151 33.2781 10.5127 33.2757L10.5875 33.1996C10.8248 33.4174 11.129 33.5331 11.4777 33.5327C11.8184 33.5327 12.2017 33.4222 12.6063 33.1888L27.229 24.7353L27.3227 24.8306L27.2278 24.8855L12.6063 33.3386C12.2376 33.5511 11.8869 33.6621 11.5702 33.6805C11.539 33.682 11.5083 33.6829 11.4781 33.6829Z" fill="url(#paint5_linear)"/>
<path d="M10.5129 33.2761C10.2197 32.9605 10.0466 32.4705 10.0466 31.8359V31.8355C10.0466 32.4705 10.2197 32.9601 10.5129 33.2757V33.2761Z" fill="black"/>
<path d="M10.5129 33.2756C10.2197 32.96 10.0466 32.4704 10.0466 31.8354V31.6861C10.0466 32.3206 10.2197 32.8107 10.5129 33.1263L10.5877 33.1992L10.5129 33.2756Z" fill="url(#paint6_linear)"/>
<path d="M10.5127 33.2756L10.5875 33.1992V33.1995L10.5127 33.2756Z" fill="url(#paint7_linear)"/>
<path d="M33.1914 21.031C33.2689 20.858 33.3079 20.6802 33.3079 20.5024C33.3079 20.5021 33.3079 20.5017 33.3079 20.5017C33.3079 20.6798 33.2689 20.8576 33.1914 21.031Z" fill="black"/>
<path d="M27.3229 24.8306L27.2292 24.7352L32.2521 21.8312C32.89 21.4625 33.2481 20.9868 33.3079 20.5023C33.3079 20.6801 33.269 20.8579 33.1915 21.0309C33.0352 21.3796 32.722 21.7091 32.2521 21.981L27.3229 24.8306Z" fill="url(#paint8_linear)"/>
<path d="M33.3079 20.5007V20.5003C33.3075 19.9641 32.9553 19.4281 32.2521 19.0212L27.3229 16.1716H27.3225L27.3229 16.1713L32.2521 19.0208C32.9561 19.4277 33.3087 19.9646 33.3079 20.5007Z" fill="#404040"/>
<path d="M33.3079 20.5002C33.248 20.0146 32.8899 19.5393 32.252 19.1705L27.2288 16.2669L27.3224 16.1716H27.3229L32.252 19.0212C32.9553 19.428 33.3075 19.9641 33.3079 20.5002Z" fill="url(#paint9_linear)"/>
<path d="M10.0466 9.16138C10.0466 9.16097 10.0466 9.16056 10.0466 9.16015C10.0466 9.16056 10.0466 9.16097 10.0466 9.16138ZM10.051 8.99481C10.051 8.99399 10.051 8.99318 10.051 8.99236C10.051 8.99318 10.051 8.99399 10.051 8.99481ZM10.0513 8.99C10.0513 8.98836 10.0513 8.98682 10.0513 8.98518C10.0513 8.98682 10.0513 8.98836 10.0513 8.99ZM10.0513 8.98395C10.1096 7.93097 10.6723 7.32273 11.4684 7.31914C11.1232 7.32119 10.8226 7.43651 10.5873 7.65227V7.65186L10.5845 7.65473C10.5597 7.67748 10.5361 7.70157 10.5129 7.72638C10.2484 8.01102 10.0816 8.43742 10.0513 8.98395Z" fill="#404040"/>
<path d="M10.0466 9.31665V9.1669C10.0466 9.16485 10.0466 9.16321 10.0466 9.16126C10.0466 9.16085 10.0466 9.16044 10.0466 9.16003C10.0466 9.10355 10.0481 9.04831 10.051 8.9947C10.051 8.99388 10.051 8.99306 10.051 8.99224C10.051 8.99152 10.051 8.9907 10.0513 8.98988C10.0513 8.98824 10.0513 8.9867 10.0513 8.98506C10.0513 8.98465 10.0513 8.98424 10.0513 8.98383C10.0816 8.4373 10.2484 8.0109 10.5129 7.72626L10.5865 7.80149C10.2484 8.11186 10.0466 8.62949 10.0466 9.31665ZM10.5845 7.65461L10.5873 7.65174C10.5865 7.65297 10.5853 7.65379 10.5845 7.65461Z" fill="url(#paint10_linear)"/>
<path d="M27.2286 16.2671L12.6063 7.81361C12.2009 7.57981 11.8173 7.4689 11.4757 7.4689C11.1274 7.4689 10.8236 7.58421 10.5863 7.80162L10.5127 7.72638C10.536 7.70157 10.5595 7.67749 10.5843 7.65473C10.5851 7.65391 10.5863 7.65309 10.5871 7.65227C10.8225 7.43651 11.1231 7.3212 11.4682 7.31915C11.469 7.31915 11.4701 7.31915 11.4713 7.31915C11.473 7.31915 11.4741 7.31915 11.4757 7.31915C11.8173 7.31915 12.2009 7.43005 12.6063 7.66396L27.3227 16.1715L27.3223 16.1718L27.2286 16.2671Z" fill="url(#paint11_linear)"/>
<defs>
<linearGradient id="paint0_linear" x1="21.9613" y1="8.92742" x2="4.76185" y2="25.8317" gradientUnits="userSpaceOnUse">
<stop stop-color="#00A0FF"/>
<stop offset="0.00657445" stop-color="#00A1FF"/>
<stop offset="0.2601" stop-color="#00BEFF"/>
<stop offset="0.5122" stop-color="#00D2FF"/>
<stop offset="0.7604" stop-color="#00DFFF"/>
<stop offset="1" stop-color="#00E3FF"/>
</linearGradient>
<linearGradient id="paint1_linear" x1="34.0851" y1="20.5015" x2="9.70889" y2="20.5015" gradientUnits="userSpaceOnUse">
<stop stop-color="#FFE000"/>
<stop offset="0.4087" stop-color="#FFBD00"/>
<stop offset="0.7754" stop-color="#FFA500"/>
<stop offset="1" stop-color="#FF9C00"/>
</linearGradient>
<linearGradient id="paint2_linear" x1="25.011" y1="22.8535" x2="1.68727" y2="45.777" gradientUnits="userSpaceOnUse">
<stop stop-color="#FF3A44"/>
<stop offset="1" stop-color="#C31162"/>
</linearGradient>
<linearGradient id="paint3_linear" x1="7.35134" y1="0.180515" x2="17.7663" y2="10.4168" gradientUnits="userSpaceOnUse">
<stop stop-color="#32A071"/>
<stop offset="0.0685" stop-color="#2DA771"/>
<stop offset="0.4762" stop-color="#15CF74"/>
<stop offset="0.8009" stop-color="#06E775"/>
<stop offset="1" stop-color="#00F076"/>
</linearGradient>
<linearGradient id="paint4_linear" x1="34.0846" y1="20.5012" x2="9.70955" y2="20.5012" gradientUnits="userSpaceOnUse">
<stop stop-color="#CCB300"/>
<stop offset="0.4087" stop-color="#CC9700"/>
<stop offset="0.7754" stop-color="#CC8400"/>
<stop offset="1" stop-color="#CC7D00"/>
</linearGradient>
<linearGradient id="paint5_linear" x1="25.0108" y1="22.8535" x2="1.68701" y2="45.777" gradientUnits="userSpaceOnUse">
<stop stop-color="#CC2E36"/>
<stop offset="1" stop-color="#9C0E4E"/>
</linearGradient>
<linearGradient id="paint6_linear" x1="21.9613" y1="8.92736" x2="4.76182" y2="25.8316" gradientUnits="userSpaceOnUse">
<stop stop-color="#008DE0"/>
<stop offset="0.00657445" stop-color="#008DE0"/>
<stop offset="0.2601" stop-color="#00A7E0"/>
<stop offset="0.5122" stop-color="#00B8E0"/>
<stop offset="0.7604" stop-color="#00C4E0"/>
<stop offset="1" stop-color="#00C7E0"/>
</linearGradient>
<linearGradient id="paint7_linear" x1="24.9987" y1="22.8531" x2="1.67443" y2="45.757" gradientUnits="userSpaceOnUse">
<stop stop-color="#E0333C"/>
<stop offset="1" stop-color="#AB0F56"/>
</linearGradient>
<linearGradient id="paint8_linear" x1="34.0852" y1="20.5014" x2="9.70892" y2="20.5014" gradientUnits="userSpaceOnUse">
<stop stop-color="#E0C500"/>
<stop offset="0.4087" stop-color="#E0A600"/>
<stop offset="0.7754" stop-color="#E09100"/>
<stop offset="1" stop-color="#E08900"/>
</linearGradient>
<linearGradient id="paint9_linear" x1="34.0851" y1="20.5013" x2="9.70884" y2="20.5013" gradientUnits="userSpaceOnUse">
<stop stop-color="#FFE840"/>
<stop offset="0.4087" stop-color="#FFCE40"/>
<stop offset="0.7754" stop-color="#FFBC40"/>
<stop offset="1" stop-color="#FFB540"/>
</linearGradient>
<linearGradient id="paint10_linear" x1="21.9613" y1="8.92735" x2="4.7618" y2="25.8316" gradientUnits="userSpaceOnUse">
<stop stop-color="#40B8FF"/>
<stop offset="0.00657445" stop-color="#40B9FF"/>
<stop offset="0.2601" stop-color="#40CEFF"/>
<stop offset="0.5122" stop-color="#40DDFF"/>
<stop offset="0.7604" stop-color="#40E7FF"/>
<stop offset="1" stop-color="#40EAFF"/>
</linearGradient>
<linearGradient id="paint11_linear" x1="7.35125" y1="0.180637" x2="17.7663" y2="10.4169" gradientUnits="userSpaceOnUse">
<stop stop-color="#65B895"/>
<stop offset="0.0685" stop-color="#62BD95"/>
<stop offset="0.4762" stop-color="#50DB97"/>
<stop offset="0.8009" stop-color="#44ED98"/>
<stop offset="1" stop-color="#40F498"/>
</linearGradient>
</defs>
</svg>
