<svg width="67" height="47" viewBox="0 0 67 47" fill="none" xmlns="http://www.w3.org/2000/svg">
<path d="M20.6662 5.04267H41.3387C41.8819 5.04267 42.3221 4.60233 42.3221 4.05912C42.3221 3.5159 41.8819 3.07556 41.3387 3.07556H20.6662C20.123 3.07556 19.6826 3.5159 19.6826 4.05912C19.6826 4.60233 20.123 5.04267 20.6662 5.04267Z" fill="black"/>
<path d="M2.1774 14.6591H22.8498C23.393 14.6591 23.8334 14.2188 23.8334 13.6756C23.8334 13.1323 23.393 12.6921 22.8498 12.6921H2.1774C1.63419 12.6921 1.19385 13.1323 1.19385 13.6756C1.19385 14.2188 1.63419 14.6591 2.1774 14.6591Z" fill="black"/>
<path d="M7.72705 24.7786C7.72705 25.3218 8.16739 25.7623 8.7106 25.7623H29.383C29.9262 25.7623 30.3666 25.3218 30.3666 24.7786C30.3666 24.2354 29.9262 23.7952 29.383 23.7952H8.7106C8.16739 23.7952 7.72705 24.2354 7.72705 24.7786Z" fill="black"/>
<path d="M19.5578 36.2095H0.983551C0.440339 36.2095 0 36.6497 0 37.1929C0 37.7361 0.440339 38.1764 0.983551 38.1764H19.5578C20.1011 38.1764 20.5414 37.7361 20.5414 37.1929C20.5414 36.6497 20.1011 36.2095 19.5578 36.2095Z" fill="black"/>
<path d="M52.9791 11.2091C55.9459 11.2091 58.351 8.80371 58.351 5.83684C58.351 2.86997 55.9457 0.464722 52.9791 0.464722C50.0117 0.464722 47.6062 2.87011 47.6062 5.83684C47.6061 8.80371 50.0116 11.2091 52.9791 11.2091Z" fill="black"/>
<path d="M61.8159 9.66214C58.7312 13.983 54.6006 14.4833 50.1557 11.8446C49.8531 11.6652 48.5107 10.9256 48.2135 10.749C41.063 6.50408 33.9209 8.16875 29.1311 14.8763C27.0957 17.7292 31.8032 20.4333 33.8158 17.6137C36.2905 14.1481 39.4373 13.1453 42.8788 14.243C41.1167 17.3017 39.576 20.3419 37.4021 24.6613C35.2276 28.9806 30.4266 32.43 25.8135 29.7322C22.4848 27.7867 19.4831 32.5686 22.8017 34.5081C29.0997 38.1889 36.4842 35.9287 40.254 31.144C40.3847 31.2139 40.5229 31.277 40.6745 31.33C43.7542 32.4029 47.7911 35.2595 49.0212 36.2719C50.2509 37.2843 52.3637 42.4417 53.6184 45.0331C55.1405 48.1774 60.056 45.8873 58.5283 42.7296C57.1061 39.7895 54.7188 33.9216 52.8568 32.437C51.3631 31.2463 48.4633 29.0303 46.0038 27.7732C47.6678 24.5502 49.4003 21.3619 51.2241 18.2287C57.0378 20.01 62.5637 17.9117 66.4993 12.3988C68.5363 9.54635 63.83 6.84224 61.8159 9.66214Z" fill="black"/>
</svg>
