<svg width="50" height="46" viewBox="0 0 50 46" fill="none" xmlns="http://www.w3.org/2000/svg">
<path d="M12.7411 35.781C12.3044 36.2177 11.9514 37.071 11.9514 37.6876V45.7185H16.6137V33.0253C16.6137 32.4087 16.2607 32.2613 15.824 32.698L12.7411 35.781Z" fill="#010002"/>
<path d="M33.2194 28.1721C32.7838 28.6088 32.4297 29.4623 32.4297 30.0799V45.7197H37.092V25.412C37.092 24.7955 36.7389 24.6491 36.3022 25.0858L33.2194 28.1721Z" fill="#010002"/>
<path d="M40.0442 21.3373C39.6075 21.7729 39.2534 22.6262 39.2534 23.2428V45.7184H43.5884V18.9158C43.5884 18.2992 43.2343 18.1518 42.7976 18.5885L40.0442 21.3373Z" fill="#010002"/>
<path d="M26.5311 34.8594C26.5311 34.8594 26.3233 35.0682 26.0665 35.3252C25.8108 35.5822 25.603 36.2914 25.603 36.9079V45.7185H30.2653V32.2456C30.2653 31.6291 29.9112 31.4816 29.4745 31.9183L26.5311 34.8594Z" fill="#010002"/>
<path d="M19.5679 32.4902C19.1312 32.0546 18.7771 32.201 18.7771 32.8176V45.7185H23.4394V37.4697C23.4394 36.8531 23.1042 36.0187 22.6899 35.6066L21.9405 34.8605L19.5679 32.4902Z" fill="#010002"/>
<path d="M6.87358 41.6518L5.36796 43.1597C4.93236 43.5964 4.57935 44.346 4.57935 44.8352V45.7198H9.78329V39.8545C9.78329 39.238 9.43028 39.0916 8.99358 39.5283L6.87358 41.6518Z" fill="#010002"/>
<path d="M49.21 18.7114C49.6456 19.1481 49.9997 19.0007 49.9997 18.3841V2.42377C49.9997 1.28105 48.9051 0.280273 47.7691 0.280273H31.9014C31.2848 0.280273 31.1374 0.634386 31.5741 1.07108L37.2181 6.71956L34.9161 9.0116L24.239 19.6987L18.5916 14.0526C18.1549 13.6159 17.4489 13.617 17.0122 14.0526L1.30775 29.7683C-0.436975 31.5141 -0.435876 34.3435 1.30885 36.088L1.41837 36.1987C3.16309 37.9434 5.99241 37.9434 7.7359 36.1976L17.8009 26.127L23.4483 31.7688C23.885 32.2044 24.5921 32.2044 25.0288 31.7688L43.6453 13.149L49.21 18.7114Z" fill="#010002"/>
</svg>
