<svg width="18" height="14" viewBox="0 0 18 14" fill="none" xmlns="http://www.w3.org/2000/svg">
<path d="M17.3334 1.93697C16.7202 2.20919 16.0612 2.39252 15.3695 2.47516C16.0758 2.05225 16.6181 1.38211 16.873 0.583496C16.2126 0.975163 15.4806 1.25988 14.7015 1.41336C14.0786 0.748774 13.189 0.333496 12.2056 0.333496C9.998 0.333496 8.37578 2.39322 8.87439 4.53141C6.03342 4.38905 3.51397 3.02794 1.82716 0.959191C0.931331 2.496 1.36258 4.50641 2.8848 5.52447C2.32508 5.50641 1.7973 5.35294 1.33689 5.09669C1.29939 6.68072 2.4348 8.16266 4.07925 8.49252C3.598 8.62308 3.07091 8.65364 2.5348 8.55086C2.96953 9.90919 4.23203 10.8974 5.72925 10.9252C4.29175 12.0522 2.48064 12.5557 0.666748 12.3418C2.17994 13.312 3.97786 13.8779 5.90841 13.8779C12.257 13.8779 15.8438 8.51614 15.6272 3.70711C16.2952 3.22447 16.8751 2.62239 17.3334 1.93697Z" fill="#007BFF"/>
</svg>
