<svg width="46" height="46" viewBox="0 0 46 46" fill="none" xmlns="http://www.w3.org/2000/svg">
<path d="M7.375 7.83284L12.5203 2.68752L10.5 0.667212C10.0891 0.256274 9.34844 0.256274 8.9375 0.667212L5.35469 4.25002C5.14922 4.45549 5.03125 4.74065 5.03125 5.03127C5.03125 5.3219 5.14922 5.60706 5.35469 5.81252L7.375 7.83284Z" fill="black"/>
<path d="M5.8125 12.0625C5.8125 12.3531 5.93047 12.6383 6.13594 12.8438L7.375 14.0828L18.7703 2.68752L17.5312 1.44846C17.1203 1.03752 16.3797 1.03752 15.9688 1.44846L6.13594 11.2813C5.93047 11.4867 5.8125 11.7719 5.8125 12.0625Z" fill="black"/>
<path d="M6.59375 17.5313C6.59375 17.8219 6.71172 18.1071 6.91719 18.3125L8.42188 19.8172C9.46016 19.4719 10.5508 19.2461 11.6805 19.1532L25.0203 5.81253C25.2258 5.60706 25.3438 5.3219 25.3438 5.03127C25.3438 4.74065 25.2258 4.45549 25.0203 4.25002L23 2.22971C22.5891 1.81877 21.8484 1.81877 21.4375 2.22971L6.91719 16.75C6.71172 16.9555 6.59375 17.2407 6.59375 17.5313Z" fill="black"/>
<path d="M34.3956 24.5626L21.4378 11.6047L16.2925 16.7501L22.5261 22.9836C22.694 23.143 22.8565 23.3063 23.0167 23.4743L29.2503 29.7079L34.3956 24.5626Z" fill="black"/>
<path d="M44.8746 29.25C44.8746 28.9594 44.7566 28.6743 44.5511 28.4688L43.3121 27.2297L31.9167 38.625L33.1558 39.8641C33.5667 40.275 34.3074 40.275 34.7183 39.8641L44.5511 30.0313C44.7566 29.8258 44.8746 29.5407 44.8746 29.25Z" fill="black"/>
<path d="M44.0938 23.7813C44.0938 23.4906 43.9758 23.2055 43.7703 23L41.75 20.9797C41.3391 20.5688 40.5984 20.5688 40.1875 20.9797L26.8477 34.3203C26.7547 35.45 26.5289 36.5399 26.1836 37.5789L27.6875 39.0828C28.0984 39.4938 28.8391 39.4938 29.25 39.0828L43.7703 24.5625C43.9758 24.3571 44.0938 24.0719 44.0938 23.7813Z" fill="black"/>
<path d="M45.3324 35.5L43.3121 33.4797L38.1667 38.625L40.1871 40.6454C40.598 41.0563 41.3386 41.0563 41.7496 40.6454L45.3324 37.0625C45.5378 36.8571 45.6558 36.5719 45.6558 36.2813C45.6558 35.9907 45.5378 35.7055 45.3324 35.5Z" fill="black"/>
<path d="M21.4141 24.0812C19.1742 21.9648 16.1617 20.6562 12.8438 20.6562C5.95156 20.6562 0.34375 26.2641 0.34375 33.1562C0.34375 40.0484 5.95156 45.6562 12.8438 45.6562C19.7359 45.6562 25.3438 40.0484 25.3438 33.1562C25.3438 29.8383 24.0352 26.8258 21.9187 24.5859L21.4141 24.0812ZM12.8438 43.3125C7.23438 43.3125 2.6875 38.7656 2.6875 33.1562C2.6875 27.5469 7.23438 23 12.8438 23C18.4531 23 23 27.5469 23 33.1562C23 38.7656 18.4531 43.3125 12.8438 43.3125Z" fill="black"/>
<path d="M12.8438 38.625C15.8641 38.625 18.3125 36.1766 18.3125 33.1562C18.3125 30.1359 15.8641 27.6875 12.8438 27.6875C9.82344 27.6875 7.375 30.1359 7.375 33.1562C7.375 36.1766 9.82344 38.625 12.8438 38.625Z" fill="black"/>
</svg>
