<svg width="18" height="12" viewBox="0 0 18 12" fill="none" xmlns="http://www.w3.org/2000/svg">
<path fill-rule="evenodd" clip-rule="evenodd" d="M15.5216 0.526827C14.2142 0.166504 8.9949 0.166504 8.9949 0.166504C8.9949 0.166504 3.7859 0.166504 2.4785 0.506228C1.77848 0.701821 1.20207 1.27824 1.00647 1.98856C0.666748 3.29595 0.666748 6.00345 0.666748 6.00345C0.666748 6.00345 0.666748 8.72123 1.00647 10.008C1.20207 10.7184 1.76819 11.2845 2.4785 11.4801C3.79619 11.8301 8.9949 11.8301 8.9949 11.8301C8.9949 11.8301 14.2142 11.8301 15.5216 11.4904C16.2319 11.2948 16.798 10.739 16.9833 10.0183C17.3334 8.72124 17.3334 6.01375 17.3334 6.01375C17.3334 6.01375 17.3436 3.29595 16.9833 1.98856C16.798 1.27824 16.2319 0.712129 15.5216 0.526827ZM7.33748 8.49466V3.50195L11.6715 6.00345L7.33748 8.49466Z" fill="#FF0000"/>
</svg>
